<svg width="16" height="16" viewBox="0 0 16 16" fill="none" xmlns="http://www.w3.org/2000/svg">
<path d="M9.9987 6.0026H8.66536V4.66927C8.66536 4.49246 8.59513 4.32289 8.4701 4.19787C8.34508 4.07284 8.17551 4.0026 7.9987 4.0026C7.82189 4.0026 7.65232 4.07284 7.52729 4.19787C7.40227 4.32289 7.33203 4.49246 7.33203 4.66927V6.0026H5.9987C5.82189 6.0026 5.65232 6.07284 5.52729 6.19787C5.40227 6.32289 5.33203 6.49246 5.33203 6.66927C5.33203 6.84608 5.40227 7.01565 5.52729 7.14068C5.65232 7.2657 5.82189 7.33594 5.9987 7.33594H7.33203V8.66927C7.33203 8.84608 7.40227 9.01565 7.52729 9.14068C7.65232 9.2657 7.82189 9.33594 7.9987 9.33594C8.17551 9.33594 8.34508 9.2657 8.4701 9.14068C8.59513 9.01565 8.66536 8.84608 8.66536 8.66927V7.33594H9.9987C10.1755 7.33594 10.3451 7.2657 10.4701 7.14068C10.5951 7.01565 10.6654 6.84608 10.6654 6.66927C10.6654 6.49246 10.5951 6.32289 10.4701 6.19787C10.3451 6.07284 10.1755 6.0026 9.9987 6.0026ZM12.6654 1.33594H3.33203C2.8016 1.33594 2.29289 1.54665 1.91782 1.92172C1.54274 2.2968 1.33203 2.8055 1.33203 3.33594V10.0026C1.33203 10.533 1.54274 11.0417 1.91782 11.4168C2.29289 11.7919 2.8016 12.0026 3.33203 12.0026H11.0587L13.5254 14.4759C13.5877 14.5377 13.6615 14.5866 13.7428 14.6198C13.824 14.653 13.911 14.6698 13.9987 14.6693C14.0861 14.6715 14.1729 14.6533 14.252 14.6159C14.3738 14.5659 14.478 14.481 14.5515 14.3718C14.6251 14.2627 14.6647 14.1342 14.6654 14.0026V3.33594C14.6654 2.8055 14.4546 2.2968 14.0796 1.92172C13.7045 1.54665 13.1958 1.33594 12.6654 1.33594ZM13.332 12.3959L11.8054 10.8626C11.7431 10.8008 11.6692 10.7519 11.588 10.7188C11.5067 10.6856 11.4198 10.6688 11.332 10.6693H3.33203C3.15522 10.6693 2.98565 10.599 2.86063 10.474C2.7356 10.349 2.66536 10.1794 2.66536 10.0026V3.33594C2.66536 3.15913 2.7356 2.98956 2.86063 2.86453C2.98565 2.73951 3.15522 2.66927 3.33203 2.66927H12.6654C12.8422 2.66927 13.0117 2.73951 13.1368 2.86453C13.2618 2.98956 13.332 3.15913 13.332 3.33594V12.3959Z" fill="#FFC107"/>
</svg>
