<svg width="307" height="241" viewBox="0 0 307 241" fill="none" xmlns="http://www.w3.org/2000/svg">
<mask id="mask0_1_26835" style="mask-type:luminance" maskUnits="userSpaceOnUse" x="40" y="8" width="220" height="227">
<path d="M40.8594 121.641C40.8594 184.206 89.8518 234.905 150.312 234.905C210.771 234.905 259.764 184.206 259.764 121.641C259.764 59.0751 210.771 8.32812 150.312 8.32812C89.8518 8.32812 40.8594 59.0751 40.8594 121.641Z" fill="white"/>
</mask>
<g mask="url(#mask0_1_26835)">
<path d="M259.81 8.32812H40.8594V234.905H259.81V8.32812Z" fill="url(#paint0_linear_1_26835)"/>
</g>
<mask id="mask1_1_26835" style="mask-type:luminance" maskUnits="userSpaceOnUse" x="48" y="14" width="206" height="213">
<path d="M51.7761 120.463C51.7761 63.9756 96.1536 18.0524 150.74 18.0524C205.326 18.0524 249.704 63.9756 249.704 120.463C249.704 176.95 205.326 222.874 150.74 222.874C96.1536 222.922 51.7761 176.95 51.7761 120.463ZM48.0469 120.463C48.0469 179.073 94.1026 226.733 150.74 226.733C207.377 226.733 253.433 179.073 253.433 120.463C253.433 61.8531 207.377 14.1934 150.74 14.1934C94.1026 14.2416 48.0469 61.9013 48.0469 120.463Z" fill="white"/>
</mask>
<g mask="url(#mask1_1_26835)">
<path d="M48.0995 229.309L45.6289 14.2617L253.392 11.7051L255.863 226.753L48.0995 229.309Z" fill="url(#paint1_linear_1_26835)"/>
</g>
<path d="M230.18 92.4676C229.108 87.1614 227.523 79.8774 225.891 72.6416C222.489 57.4464 209.436 46.7374 194.38 46.7374C193.914 44.8079 192.235 43.3607 190.231 43.3607H178.624C176.619 43.3607 174.941 44.8079 174.475 46.7374H153.825C153.825 46.7374 153.825 46.7374 153.825 46.7857C153.871 46.8822 153.964 46.9304 154.011 47.0269C154.244 47.4128 150.235 62.7044 146.04 78.2373L145.947 78.189C145.62 78.0925 145.294 77.9478 144.968 77.8513C143.756 77.4654 142.497 77.0795 141.285 76.5971C139.234 75.8253 145.294 49.4388 145.9 46.9304V46.8822C145.9 46.8339 145.947 46.7374 145.947 46.6892H127.394C126.928 44.7597 125.25 43.3125 123.245 43.3125H111.638C109.633 43.3125 107.955 44.7597 107.489 46.6892H106.743C91.6867 46.6892 78.5879 57.4464 75.2316 72.5933C73.6 79.8291 72.0151 87.1131 70.943 92.4194C66.095 116.201 65.1161 141.526 79.5202 150.692C90.1018 154.937 91.5935 152.525 94.8565 142.732C98.1196 132.94 103.434 107.711 120.588 109.255C120.588 109.255 120.588 109.255 120.635 109.255C125.949 109.978 131.449 110.461 137.136 110.798C137.136 110.798 137.136 110.798 137.183 110.798C137.276 110.798 137.416 110.798 137.509 110.798C137.509 110.798 137.509 110.798 137.509 110.75C141.658 110.654 177.272 109.641 180.628 109.206H180.675C197.829 107.615 203.143 132.843 206.406 142.684C209.669 152.476 213.072 154.888 223.701 150.643C237.965 141.575 235.028 116.249 230.18 92.4676ZM101.196 64.2963C101.196 62.7527 102.408 61.4502 103.9 61.4502H110.426C111.918 61.4502 113.176 62.7044 113.176 64.2963V70.8085C113.176 71.6286 112.85 72.4486 112.244 72.9792L108.422 76.5489C107.722 77.2242 106.65 77.2242 105.998 76.5489L102.175 72.9792C101.569 72.4004 101.243 71.6286 101.243 70.8085V64.2963H101.196ZM97.4203 87.1131H91.1273C89.6356 87.1131 88.377 85.8589 88.377 84.2671V77.5137C88.377 75.97 89.589 74.6676 91.1273 74.6676H97.4203C98.2128 74.6676 99.0053 75.0053 99.518 75.6324L102.968 79.5879C103.62 80.3115 103.62 81.421 102.968 82.0963L99.518 86.0519C98.9586 86.7755 98.2128 87.1131 97.4203 87.1131ZM113.176 97.5809C113.176 99.1245 111.964 100.427 110.426 100.427H103.9C102.408 100.427 101.196 99.1728 101.196 97.5809V91.0687C101.196 90.2486 101.522 89.4286 102.128 88.898L105.951 85.3283C106.65 84.653 107.722 84.653 108.375 85.3283L112.197 88.898C112.803 89.4768 113.13 90.2486 113.13 91.0687V97.5809H113.176ZM125.995 84.3153C125.995 85.8589 124.783 87.1614 123.245 87.1614H116.999C116.206 87.1614 115.414 86.8237 114.901 86.1966L111.451 82.241C110.799 81.5175 110.799 80.408 111.451 79.7326L114.901 75.7771C115.46 75.15 116.206 74.8123 116.999 74.8123H123.292C124.783 74.8123 126.042 76.0665 126.042 77.6584V84.3153H125.995ZM138.255 106.553C138.255 105.926 138.255 105.299 138.209 104.624C137.929 101.633 138.628 98.8834 140.353 96.4714C140.819 95.7961 140.959 94.8796 141.145 93.8183V93.7218C141.239 93.2394 141.332 92.7571 141.425 92.2747C141.565 91.6958 141.705 91.117 141.891 90.5381L142.078 89.8145C142.59 87.7885 143.15 85.5213 143.896 83.3505C144.315 81.9999 144.921 80.7456 145.527 79.4914L145.574 79.395C145.714 79.1538 145.807 78.9126 145.9 78.6714C142.917 89.718 139.887 100.668 138.255 106.553ZM197.503 61.1608C200.999 61.1608 203.889 64.1033 203.889 67.7695C203.889 71.3874 201.046 74.3782 197.503 74.3782C193.96 74.3782 191.117 71.4356 191.117 67.7695C191.117 64.1033 194.007 61.1608 197.503 61.1608ZM184.777 87.4991C181.234 87.4991 178.391 84.5565 178.391 80.8904C178.391 77.2725 181.234 74.2817 184.777 74.2817C188.273 74.2817 191.163 77.2242 191.163 80.8904C191.163 84.5565 188.32 87.4991 184.777 87.4991ZM197.503 100.668C193.96 100.668 191.117 97.7256 191.117 94.0595C191.117 90.3934 193.96 87.4508 197.503 87.4508C200.999 87.4508 203.889 90.3934 203.889 94.0595C203.889 97.7256 201.046 100.668 197.503 100.668ZM210.229 87.4991C206.733 87.4991 203.843 84.5565 203.843 80.8904C203.843 77.2725 206.733 74.2817 210.229 74.2817C213.772 74.2817 216.615 77.2242 216.615 80.8904C216.615 84.5565 213.725 87.4991 210.229 87.4991ZM107.21 65.0681L105.019 67.3353H109.354L107.21 65.0681ZM94.0641 83.1576V78.6714L91.8732 80.9386L94.0641 83.1576ZM107.21 96.7609L109.4 94.4936H105.065L107.21 96.7609ZM120.308 83.1576L122.499 80.8904L120.308 78.6232V83.1576Z" fill="white"/>
<mask id="mask2_1_26835" style="mask-type:luminance" maskUnits="userSpaceOnUse" x="129" y="27" width="44" height="89">
<path d="M143.391 27.8556C142.692 28.0968 142.086 28.4827 141.666 28.9651C141.293 29.3992 141.014 29.8333 140.92 30.364C140.92 30.4122 140.92 30.4122 140.92 30.4605C140.175 33.596 139.755 36.8762 141.806 39.867C143.111 41.7483 143.065 42.2307 141.154 43.919C140.827 44.2085 140.548 44.4979 140.175 44.7873L140.081 44.8838C138.59 46.1862 137.051 47.5369 136.306 49.3217C135.047 52.3608 134.208 55.641 133.369 58.7765V58.8247C133.089 59.886 132.856 60.899 132.576 61.8638C131.877 64.4687 132.716 66.157 135.233 67.1218C136.725 67.7006 138.263 68.183 139.755 68.6654C140.128 68.8101 140.548 68.9066 140.967 69.0513L141.154 69.0996L140.92 69.582C140.781 69.8714 140.641 70.1608 140.501 70.4502L140.454 70.5467C139.708 72.0904 138.963 73.6822 138.45 75.3223C137.564 77.9755 136.865 80.8215 136.212 83.33L136.026 84.1018C135.839 84.8253 135.653 85.5972 135.466 86.3207C135.327 86.8996 135.187 87.5267 135.094 88.1056L135.047 88.2503C134.86 89.4562 134.627 90.614 134.068 91.434C131.97 94.4731 131.085 97.8498 131.458 101.564C131.784 104.844 131.224 107.835 129.779 111.019C129.733 111.067 129.733 111.164 129.686 111.212C129.64 111.26 129.64 111.357 129.593 111.405V111.453C129.267 112.08 128.847 112.9 129.127 113.768C129.313 114.299 129.779 114.733 130.525 115.023C131.691 115.505 133.042 115.505 134.161 115.023C135 114.637 135.606 114.01 135.886 113.19L135.933 113.093C136.306 112.08 136.632 111.212 136.865 110.247L136.912 110.054L137.051 110.199C137.284 110.44 137.564 110.585 137.89 110.681C138.636 110.874 139.475 110.585 140.128 109.813C140.361 109.572 140.594 109.282 140.827 108.945C141.247 108.318 141.62 107.69 141.993 107.063L142.039 107.015C142.319 106.484 142.645 105.954 142.972 105.423C143.205 105.086 143.438 104.7 143.671 104.314L143.811 104.121C144.463 103.011 145.116 101.902 146.001 101.178C150.15 97.9462 153.553 94.2801 156.49 90.0351C156.909 89.4562 157.329 88.8774 157.842 88.2985C159.287 86.5137 160.778 84.6806 160.825 81.8346C160.825 81.0627 161.012 80.2909 161.198 79.5191C161.291 79.0849 161.384 78.6508 161.478 78.1684C161.571 77.5896 161.664 77.0589 161.804 76.5283L161.897 76.0942C162.457 73.441 163.016 70.7397 161.944 67.7006C161.012 64.9028 160.545 61.8155 160.126 58.873V58.7765C159.986 57.7635 159.846 56.7505 159.66 55.7375C159.566 55.1104 159.566 54.435 159.613 53.6632V53.2291L159.8 53.3255C159.846 53.3738 159.893 53.3738 159.939 53.422L159.986 53.4703C160.732 53.8079 161.338 54.1456 161.571 54.5315C162.69 56.4128 163.529 58.5353 164.228 60.5613C164.275 60.7543 164.368 60.9473 164.414 61.1402L164.461 61.2849C165.16 63.1662 165.813 64.9993 165.114 66.9771C164.741 67.9901 164.648 69.0513 164.508 70.0643L164.461 70.4502C164.414 70.7879 164.368 71.1256 164.321 71.4633L164.228 71.9456L165.626 72.7657L167.631 70.1126L170.521 75.9012L171.174 74.7917C171.407 74.3576 171.686 74.0199 171.919 73.6822C172.479 72.8622 172.992 72.1868 172.992 71.3668C172.992 70.6914 172.945 68.2795 171.733 67.0253C169.682 64.8546 169.169 62.2497 168.983 59.0177C168.796 54.6762 167.071 50.5277 163.715 46.4274C162.783 45.2697 161.571 44.1602 159.986 42.9542C159.1 42.3271 157.935 41.8448 156.816 41.6518C155.371 41.4106 153.926 41.2659 152.295 41.1694C151.922 41.1212 151.549 41.1212 151.176 41.0729H151.036V40.9282C151.083 40.687 151.083 40.4458 151.129 40.2529L151.176 40.0117C151.269 39.1434 151.362 38.3716 151.362 37.5998C151.362 37.0209 151.316 36.4903 151.269 36.0079V35.9597C151.176 35.2361 151.129 34.5125 151.269 33.9336C151.595 32.6312 151.502 31.5699 150.896 30.6052C150.57 30.0745 150.15 29.5921 149.591 29.1098C149.451 28.965 149.311 28.8686 149.171 28.7721C148.239 28.0485 146.887 27.6144 145.535 27.6144C144.836 27.4697 144.09 27.6144 143.391 27.8556Z" fill="white"/>
</mask>
<g mask="url(#mask2_1_26835)">
<path d="M172.964 27.459H128.727V115.446H172.964V27.459Z" fill="url(#paint2_linear_1_26835)"/>
</g>
<mask id="mask3_1_26835" style="mask-type:luminance" maskUnits="userSpaceOnUse" x="144" y="100" width="15" height="15">
<path d="M146.383 102.228C145.078 103.579 144.379 105.412 144.379 107.341C144.379 107.727 144.426 108.161 144.519 108.595C144.565 108.933 144.659 109.174 144.752 109.464C145.638 112.406 148.388 114.432 151.371 114.432H151.464C154.588 114.384 157.338 112.069 158.084 108.933C158.13 108.885 158.13 108.837 158.13 108.788C158.13 108.74 158.13 108.74 158.13 108.692C158.224 108.21 158.27 107.775 158.27 107.293C158.27 105.363 157.571 103.579 156.266 102.228C154.961 100.877 153.189 100.105 151.278 100.105C149.413 100.154 147.689 100.877 146.383 102.228Z" fill="white"/>
</mask>
<g mask="url(#mask3_1_26835)">
<path d="M158.317 100.105H144.379V114.432H158.317V100.105Z" fill="url(#paint3_linear_1_26835)"/>
</g>
<path d="M140.638 60.836C140.591 60.2089 140.312 59.63 140.032 58.7135C139.426 59.823 138.96 60.6913 138.214 62.0419C139.006 62.5726 139.752 63.1514 140.545 63.682C140.591 62.7173 140.685 61.7525 140.638 60.836ZM139.799 62.0902L139.333 61.7525L139.799 60.836V60.8842C139.846 61.2701 139.846 61.656 139.799 62.0902ZM140.638 60.836C140.591 60.2089 140.312 59.63 140.032 58.7135C139.426 59.823 138.96 60.6913 138.214 62.0419C139.006 62.5726 139.752 63.1514 140.545 63.682C140.591 62.7173 140.685 61.7525 140.638 60.836ZM139.799 62.0902L139.333 61.7525L139.799 60.836V60.8842C139.846 61.2701 139.846 61.656 139.799 62.0902ZM140.638 60.836C140.591 60.2089 140.312 59.63 140.032 58.7135C139.426 59.823 138.96 60.6913 138.214 62.0419C139.006 62.5726 139.752 63.1514 140.545 63.682C140.591 62.7173 140.685 61.7525 140.638 60.836ZM139.799 62.0902L139.333 61.7525L139.799 60.836V60.8842C139.846 61.2701 139.846 61.656 139.799 62.0902ZM140.638 60.836C140.591 60.2089 140.312 59.63 140.032 58.7135C139.426 59.823 138.96 60.6913 138.214 62.0419C139.006 62.5726 139.752 63.1514 140.545 63.682C140.591 62.7173 140.685 61.7525 140.638 60.836ZM139.799 62.0902L139.333 61.7525L139.799 60.836V60.8842C139.846 61.2701 139.846 61.656 139.799 62.0902ZM140.638 60.836C140.591 60.2089 140.312 59.63 140.032 58.7135C139.426 59.823 138.96 60.6913 138.214 62.0419C139.006 62.5726 139.752 63.1514 140.545 63.682C140.591 62.7173 140.685 61.7525 140.638 60.836ZM139.799 62.0902L139.333 61.7525L139.799 60.836V60.8842C139.846 61.2701 139.846 61.656 139.799 62.0902ZM140.638 60.836C140.591 60.2089 140.312 59.63 140.032 58.7135C139.426 59.823 138.96 60.6913 138.214 62.0419C139.006 62.5726 139.752 63.1514 140.545 63.682C140.591 62.7173 140.685 61.7525 140.638 60.836ZM139.799 62.0902L139.333 61.7525L139.799 60.836V60.8842C139.846 61.2701 139.846 61.656 139.799 62.0902ZM140.638 60.836C140.591 60.2089 140.312 59.63 140.032 58.7135C139.426 59.823 138.96 60.6913 138.214 62.0419C139.006 62.5726 139.752 63.1514 140.545 63.682C140.591 62.7173 140.685 61.7525 140.638 60.836ZM139.799 62.0902L139.333 61.7525L139.799 60.836V60.8842C139.846 61.2701 139.846 61.656 139.799 62.0902ZM140.638 60.836C140.591 60.2089 140.312 59.63 140.032 58.7135C139.426 59.823 138.96 60.6913 138.214 62.0419C139.006 62.5726 139.752 63.1514 140.545 63.682C140.591 62.7173 140.685 61.7525 140.638 60.836ZM139.799 62.0902L139.333 61.7525L139.799 60.836V60.8842C139.846 61.2701 139.846 61.656 139.799 62.0902ZM140.638 60.836C140.591 60.2089 140.312 59.63 140.032 58.7135C139.426 59.823 138.96 60.6913 138.214 62.0419C139.006 62.5726 139.752 63.1514 140.545 63.682C140.591 62.7173 140.685 61.7525 140.638 60.836ZM139.799 62.0902L139.333 61.7525L139.799 60.836V60.8842C139.846 61.2701 139.846 61.656 139.799 62.0902ZM140.638 60.836C140.591 60.2089 140.312 59.63 140.032 58.7135C139.426 59.823 138.96 60.6913 138.214 62.0419C139.006 62.5726 139.752 63.1514 140.545 63.682C140.591 62.7173 140.685 61.7525 140.638 60.836ZM139.799 62.0902L139.333 61.7525L139.799 60.836V60.8842C139.846 61.2701 139.846 61.656 139.799 62.0902ZM140.638 60.836C140.591 60.2089 140.312 59.63 140.032 58.7135C139.426 59.823 138.96 60.6913 138.214 62.0419C139.006 62.5726 139.752 63.1514 140.545 63.682C140.591 62.7173 140.685 61.7525 140.638 60.836ZM139.799 62.0902L139.333 61.7525L139.799 60.836V60.8842C139.846 61.2701 139.846 61.656 139.799 62.0902ZM140.638 60.836C140.591 60.2089 140.312 59.63 140.032 58.7135C139.426 59.823 138.96 60.6913 138.214 62.0419C139.006 62.5726 139.752 63.1514 140.545 63.682C140.591 62.7173 140.685 61.7525 140.638 60.836ZM139.799 62.0902L139.333 61.7525L139.799 60.836V60.8842C139.846 61.2701 139.846 61.656 139.799 62.0902ZM140.638 60.836C140.591 60.2089 140.312 59.63 140.032 58.7135C139.426 59.823 138.96 60.6913 138.214 62.0419C139.006 62.5726 139.752 63.1514 140.545 63.682C140.591 62.7173 140.685 61.7525 140.638 60.836ZM139.799 62.0902L139.333 61.7525L139.799 60.836V60.8842C139.846 61.2701 139.846 61.656 139.799 62.0902ZM140.638 60.836C140.591 60.2089 140.312 59.63 140.032 58.7135C139.426 59.823 138.96 60.6913 138.214 62.0419C139.006 62.5726 139.752 63.1514 140.545 63.682C140.591 62.7173 140.685 61.7525 140.638 60.836ZM139.799 62.0902L139.333 61.7525L139.799 60.836V60.8842C139.846 61.2701 139.846 61.656 139.799 62.0902ZM140.638 60.836C140.591 60.2089 140.312 59.63 140.032 58.7135C139.426 59.823 138.96 60.6913 138.214 62.0419C139.006 62.5726 139.752 63.1514 140.545 63.682C140.591 62.7173 140.685 61.7525 140.638 60.836ZM139.799 62.0902L139.333 61.7525L139.799 60.836V60.8842C139.846 61.2701 139.846 61.656 139.799 62.0902ZM140.638 60.836C140.591 60.2089 140.312 59.63 140.032 58.7135C139.426 59.823 138.96 60.6913 138.214 62.0419C139.006 62.5726 139.752 63.1514 140.545 63.682C140.591 62.7173 140.685 61.7525 140.638 60.836ZM139.799 62.0902L139.333 61.7525L139.799 60.836V60.8842C139.846 61.2701 139.846 61.656 139.799 62.0902ZM140.638 60.836C140.591 60.2089 140.312 59.63 140.032 58.7135C139.426 59.823 138.96 60.6913 138.214 62.0419C139.006 62.5726 139.752 63.1514 140.545 63.682C140.591 62.7173 140.685 61.7525 140.638 60.836ZM139.799 62.0902L139.333 61.7525L139.799 60.836V60.8842C139.846 61.2701 139.846 61.656 139.799 62.0902ZM140.638 60.836C140.591 60.2089 140.312 59.63 140.032 58.7135C139.426 59.823 138.96 60.6913 138.214 62.0419C139.006 62.5726 139.752 63.1514 140.545 63.682C140.591 62.7173 140.685 61.7525 140.638 60.836ZM139.799 62.0902L139.333 61.7525L139.799 60.836V60.8842C139.846 61.2701 139.846 61.656 139.799 62.0902ZM140.638 60.836C140.591 60.2089 140.312 59.63 140.032 58.7135C139.426 59.823 138.96 60.6913 138.214 62.0419C139.006 62.5726 139.752 63.1514 140.545 63.682C140.591 62.7173 140.685 61.7525 140.638 60.836ZM139.799 62.0902L139.333 61.7525L139.799 60.836V60.8842C139.846 61.2701 139.846 61.656 139.799 62.0902ZM140.638 60.836C140.591 60.2089 140.312 59.63 140.032 58.7135C139.426 59.823 138.96 60.6913 138.214 62.0419C139.006 62.5726 139.752 63.1514 140.545 63.682C140.591 62.7173 140.685 61.7525 140.638 60.836ZM139.799 62.0902L139.333 61.7525L139.799 60.836V60.8842C139.846 61.2701 139.846 61.656 139.799 62.0902ZM169.679 72.6062C169.959 73.1368 170.239 73.6674 170.518 74.2945C170.845 73.7157 171.217 73.2333 171.544 72.7991C171.031 73.4262 170.052 73.3298 169.679 72.6062ZM165.624 70.8214C166.37 70.5319 166.742 69.8566 167.535 68.8436C166.836 69.7601 166.09 70.5319 165.624 70.8214ZM165.297 70.9178C165.064 70.8696 164.924 70.7249 164.831 70.5802C164.831 70.6284 164.831 70.6284 164.878 70.6766C164.924 70.8214 165.111 70.9661 165.297 70.9178ZM165.484 67.4446C165.064 68.4577 164.412 69.2295 164.645 70.1943C164.598 69.4224 165.111 68.3129 165.484 67.4446ZM140.638 60.836C140.591 60.2089 140.312 59.63 140.032 58.7135C139.426 59.823 138.96 60.6913 138.214 62.0419C139.006 62.5726 139.752 63.1514 140.545 63.682C140.591 62.7173 140.685 61.7525 140.638 60.836ZM139.799 62.0902L139.333 61.7525L139.799 60.836V60.8842C139.846 61.2701 139.846 61.656 139.799 62.0902ZM140.638 60.836C140.591 60.2089 140.312 59.63 140.032 58.7135C139.426 59.823 138.96 60.6913 138.214 62.0419C139.006 62.5726 139.752 63.1514 140.545 63.682C140.591 62.7173 140.685 61.7525 140.638 60.836ZM139.799 62.0902L139.333 61.7525L139.799 60.836V60.8842C139.846 61.2701 139.846 61.656 139.799 62.0902ZM169.679 72.6062C169.959 73.1368 170.239 73.6674 170.518 74.2945C170.845 73.7157 171.217 73.2333 171.544 72.7991C171.031 73.4262 170.052 73.3298 169.679 72.6062ZM165.624 70.8214C166.37 70.5319 166.742 69.8566 167.535 68.8436C166.836 69.7601 166.09 70.5319 165.624 70.8214ZM165.297 70.9178C165.064 70.8696 164.924 70.7249 164.831 70.5802C164.831 70.6284 164.831 70.6284 164.878 70.6766C164.924 70.8214 165.111 70.9661 165.297 70.9178ZM165.484 67.4446C165.064 68.4577 164.412 69.2295 164.645 70.1943C164.598 69.4224 165.111 68.3129 165.484 67.4446ZM140.638 60.836C140.591 60.2089 140.312 59.63 140.032 58.7135C139.426 59.823 138.96 60.6913 138.214 62.0419C139.006 62.5726 139.752 63.1514 140.545 63.682C140.591 62.7173 140.685 61.7525 140.638 60.836ZM139.799 62.0902L139.333 61.7525L139.799 60.836V60.8842C139.846 61.2701 139.846 61.656 139.799 62.0902ZM140.638 60.836C140.591 60.2089 140.312 59.63 140.032 58.7135C139.426 59.823 138.96 60.6913 138.214 62.0419C139.006 62.5726 139.752 63.1514 140.545 63.682C140.591 62.7173 140.685 61.7525 140.638 60.836ZM139.799 62.0902L139.333 61.7525L139.799 60.836V60.8842C139.846 61.2701 139.846 61.656 139.799 62.0902ZM169.679 72.6062C169.959 73.1368 170.239 73.6674 170.518 74.2945C170.845 73.7157 171.217 73.2333 171.544 72.7991C171.031 73.4262 170.052 73.3298 169.679 72.6062ZM165.624 70.8214C166.37 70.5319 166.742 69.8566 167.535 68.8436C166.836 69.7601 166.09 70.5319 165.624 70.8214ZM165.297 70.9178C165.064 70.8696 164.924 70.7249 164.831 70.5802C164.831 70.6284 164.831 70.6284 164.878 70.6766C164.924 70.8214 165.111 70.9661 165.297 70.9178ZM165.484 67.4446C165.064 68.4577 164.412 69.2295 164.645 70.1943C164.598 69.4224 165.111 68.3129 165.484 67.4446ZM140.638 60.836C140.591 60.2089 140.312 59.63 140.032 58.7135C139.426 59.823 138.96 60.6913 138.214 62.0419C139.006 62.5726 139.752 63.1514 140.545 63.682C140.591 62.7173 140.685 61.7525 140.638 60.836ZM139.799 62.0902L139.333 61.7525L139.799 60.836V60.8842C139.846 61.2701 139.846 61.656 139.799 62.0902ZM140.638 60.836C140.591 60.2089 140.312 59.63 140.032 58.7135C139.426 59.823 138.96 60.6913 138.214 62.0419C139.006 62.5726 139.752 63.1514 140.545 63.682C140.591 62.7173 140.685 61.7525 140.638 60.836ZM139.799 62.0902L139.333 61.7525L139.799 60.836V60.8842C139.846 61.2701 139.846 61.656 139.799 62.0902ZM169.679 72.6062C169.959 73.1368 170.239 73.6674 170.518 74.2945C170.845 73.7157 171.217 73.2333 171.544 72.7991C171.031 73.4262 170.052 73.3298 169.679 72.6062ZM165.624 70.8214C166.37 70.5319 166.742 69.8566 167.535 68.8436C166.836 69.7601 166.09 70.5319 165.624 70.8214ZM165.297 70.9178C165.064 70.8696 164.924 70.7249 164.831 70.5802C164.831 70.6284 164.831 70.6284 164.878 70.6766C164.924 70.8214 165.111 70.9661 165.297 70.9178ZM165.484 67.4446C165.064 68.4577 164.412 69.2295 164.645 70.1943C164.598 69.4224 165.111 68.3129 165.484 67.4446ZM140.638 60.836C140.591 60.2089 140.312 59.63 140.032 58.7135C139.426 59.823 138.96 60.6913 138.214 62.0419C139.006 62.5726 139.752 63.1514 140.545 63.682C140.591 62.7173 140.685 61.7525 140.638 60.836ZM139.799 62.0902L139.333 61.7525L139.799 60.836V60.8842C139.846 61.2701 139.846 61.656 139.799 62.0902ZM140.638 60.836C140.591 60.2089 140.312 59.63 140.032 58.7135C139.426 59.823 138.96 60.6913 138.214 62.0419C139.006 62.5726 139.752 63.1514 140.545 63.682C140.591 62.7173 140.685 61.7525 140.638 60.836ZM139.799 62.0902L139.333 61.7525L139.799 60.836V60.8842C139.846 61.2701 139.846 61.656 139.799 62.0902ZM169.679 72.6062C169.959 73.1368 170.239 73.6674 170.518 74.2945C170.845 73.7157 171.217 73.2333 171.544 72.7991C171.031 73.4262 170.052 73.3298 169.679 72.6062ZM165.624 70.8214C166.37 70.5319 166.742 69.8566 167.535 68.8436C166.836 69.7601 166.09 70.5319 165.624 70.8214ZM165.297 70.9178C165.064 70.8696 164.924 70.7249 164.831 70.5802C164.831 70.6284 164.831 70.6284 164.878 70.6766C164.924 70.8214 165.111 70.9661 165.297 70.9178ZM165.484 67.4446C165.064 68.4577 164.412 69.2295 164.645 70.1943C164.598 69.4224 165.111 68.3129 165.484 67.4446ZM140.638 60.836C140.591 60.2089 140.312 59.63 140.032 58.7135C139.426 59.823 138.96 60.6913 138.214 62.0419C139.006 62.5726 139.752 63.1514 140.545 63.682C140.591 62.7173 140.685 61.7525 140.638 60.836ZM139.799 62.0902L139.333 61.7525L139.799 60.836V60.8842C139.846 61.2701 139.846 61.656 139.799 62.0902ZM140.638 60.836C140.591 60.2089 140.312 59.63 140.032 58.7135C139.426 59.823 138.96 60.6913 138.214 62.0419C139.006 62.5726 139.752 63.1514 140.545 63.682C140.591 62.7173 140.685 61.7525 140.638 60.836ZM139.799 62.0902L139.333 61.7525L139.799 60.836V60.8842C139.846 61.2701 139.846 61.656 139.799 62.0902ZM169.679 72.6062C169.959 73.1368 170.239 73.6674 170.518 74.2945C170.845 73.7157 171.217 73.2333 171.544 72.7991C171.031 73.4262 170.052 73.3298 169.679 72.6062ZM165.624 70.8214C166.37 70.5319 166.742 69.8566 167.535 68.8436C166.836 69.7601 166.09 70.5319 165.624 70.8214ZM164.785 70.5802C164.785 70.6284 164.785 70.6284 164.831 70.6766C164.924 70.8214 165.111 70.9661 165.297 70.9661C165.064 70.8214 164.924 70.7249 164.785 70.5802ZM164.691 70.1943C164.598 69.4707 165.158 68.3612 165.53 67.4446C165.064 68.4094 164.458 69.2295 164.691 70.1943ZM140.032 58.7135C139.426 59.823 138.96 60.6913 138.214 62.0419C139.006 62.5726 139.752 63.1514 140.545 63.682C140.591 62.7173 140.731 61.8007 140.638 60.836C140.591 60.2089 140.312 59.5818 140.032 58.7135ZM139.799 62.0902L139.333 61.7525L139.799 60.836V60.8842C139.846 61.2701 139.846 61.656 139.799 62.0902ZM171.823 66.7693C169.772 64.6468 169.26 62.0902 169.12 58.8582C168.933 54.4685 167.162 50.32 163.806 46.1714C162.873 45.0137 161.615 43.856 160.076 42.6983C159.191 42.0229 158.025 41.5405 156.86 41.3476C155.368 41.1064 153.923 40.9617 152.338 40.8652C151.965 40.817 151.593 40.817 151.22 40.7687C151.266 40.5275 151.266 40.2863 151.313 40.0934C151.406 39.1286 151.499 38.3085 151.546 37.4403C151.546 36.9096 151.499 36.3308 151.453 35.8484C151.359 35.1248 151.266 34.4012 151.453 33.8224C151.826 32.3752 151.593 31.2657 151.08 30.3974C150.753 29.8186 150.241 29.3362 149.728 28.902C149.588 28.8055 149.448 28.6608 149.308 28.5644C147.817 27.3584 145.346 27.069 143.342 27.7925C142.596 28.082 141.99 28.4679 141.57 28.902C141.151 29.3362 140.918 29.8185 140.778 30.3492C140.778 30.3974 140.778 30.3974 140.778 30.3974C140.032 33.5812 139.612 36.9096 141.71 39.9004C142.969 41.7335 142.922 42.1194 141.104 43.8077C140.778 44.0972 140.405 44.4349 140.079 44.7243C138.54 46.075 136.955 47.4256 136.21 49.2587C134.951 52.346 134.065 55.6262 133.273 58.7617C132.993 59.7747 132.76 60.7877 132.48 61.8007C131.735 64.5021 132.62 66.2387 135.231 67.2035C136.722 67.7823 138.167 68.2647 139.752 68.7471C140.172 68.8918 140.591 69.0365 140.964 69.133C140.778 69.5189 140.591 69.9531 140.405 70.339C139.659 71.8826 138.913 73.5227 138.354 75.2111C137.515 77.8642 136.816 80.5656 136.116 83.2187C135.837 84.2317 135.604 85.1965 135.324 86.2095C135.137 86.8366 135.044 87.4637 134.951 88.0908C134.764 89.2967 134.531 90.4545 134.019 91.2745C131.874 94.3136 130.989 97.7385 131.362 101.501C131.688 104.781 131.175 107.724 129.683 110.908C129.637 110.956 129.637 111.004 129.59 111.101C129.544 111.149 129.544 111.245 129.497 111.294C129.171 111.969 128.705 112.837 128.984 113.754C129.171 114.333 129.683 114.815 130.429 115.104C131.035 115.346 131.688 115.49 132.34 115.49C132.993 115.49 133.599 115.346 134.158 115.104C135.044 114.718 135.65 114.043 135.976 113.223L136.023 113.127C136.349 112.21 136.722 111.245 136.955 110.281C137.235 110.522 137.515 110.715 137.841 110.763C138.634 110.956 139.519 110.666 140.218 109.846C140.452 109.557 140.685 109.268 140.918 108.978C141.337 108.351 141.757 107.676 142.13 107.049C142.456 106.47 142.736 105.987 143.062 105.457C143.342 105.023 143.621 104.588 143.901 104.106C144.554 102.996 145.206 101.887 146.092 101.212C150.241 97.9314 153.69 94.2653 156.58 90.0203C157 89.4415 157.419 88.8626 157.932 88.2837C159.377 86.4989 160.916 84.6176 160.916 81.7233C160.916 80.9997 161.102 80.2279 161.242 79.4561C161.335 79.0219 161.428 78.5395 161.522 78.1054C161.615 77.3818 161.801 76.7065 161.941 75.9829C162.5 73.3298 163.06 70.5802 161.988 67.4929C161.055 64.6951 160.589 61.656 160.216 58.6652C160.076 57.604 159.937 56.5427 159.75 55.5297C159.657 54.8544 159.657 54.1308 159.704 53.3107C159.704 53.3107 159.704 53.3107 159.704 53.2625C159.75 53.3107 159.797 53.3107 159.89 53.359C160.636 53.6967 161.242 54.0343 161.475 54.4202C162.64 56.3015 163.433 58.5205 164.132 60.4018C164.225 60.643 164.318 60.8842 164.412 61.1254C165.111 63.0067 165.764 64.7915 165.064 66.7211C164.691 67.7341 164.598 68.8436 164.458 69.9048C164.412 70.339 164.365 70.7731 164.318 71.2555L164.225 71.8344L165.81 72.7509L167.768 70.146L170.658 75.9346L171.404 74.6322C171.637 74.1981 171.917 73.8604 172.15 73.5227C172.709 72.7027 173.222 72.0273 173.222 71.159C173.082 70.4837 173.035 68.0718 171.823 66.7693ZM172.103 71.8344C171.963 72.1238 171.777 72.4132 171.59 72.7027L171.544 72.7509C171.078 73.4262 170.052 73.3298 169.726 72.6062C169.027 71.2073 168.421 70.0013 167.721 68.6024C167.675 68.6989 167.628 68.7471 167.535 68.8436C166.836 69.7601 166.09 70.5319 165.624 70.8214C165.484 70.8696 165.391 70.9178 165.297 70.9178C165.064 70.8696 164.924 70.7249 164.831 70.5802V70.5319C164.785 70.4355 164.738 70.339 164.738 70.1943V70.146C164.645 69.4224 165.204 68.313 165.577 67.3964C165.624 67.2517 165.67 67.1552 165.717 67.0105C166.649 64.4539 165.577 62.2831 164.785 60.0641C164.039 57.9417 163.2 55.8192 162.081 53.8896C161.522 52.9731 160.17 52.6354 158.818 51.8153C158.818 53.3107 158.678 54.4685 158.864 55.578C159.517 59.63 159.843 63.8268 161.149 67.6858C162.407 71.352 161.195 74.4875 160.636 77.8642C160.449 79.1184 160.03 80.3726 159.983 81.6268C159.983 85.0518 157.466 86.9813 155.788 89.4415C152.898 93.6865 149.448 97.3044 145.486 100.44C144.134 101.501 143.295 103.334 142.316 104.878C141.43 106.228 140.731 107.772 139.706 108.978L139.566 109.171C138.773 110.088 137.841 110.088 137.282 109.316C137.095 109.075 136.955 108.737 136.862 108.303C136.722 107.724 136.536 106.952 136.769 106.518C138.354 103.624 138.121 99.5716 141.803 97.8832C142.736 97.4491 143.342 96.1466 143.994 95.1818C145.859 92.4322 147.91 89.7791 149.448 86.8366C150.101 85.5824 149.681 83.7493 149.775 82.1092C149.262 82.1574 149.029 82.1092 148.982 82.1574C147.584 85.3412 144.973 87.5119 142.829 90.0203C139.286 94.1688 138.307 99.7163 136.163 104.637C136.07 104.878 135.976 105.264 136.07 105.505C136.489 106.856 136.489 108.206 136.21 109.46C135.976 110.57 135.557 111.679 135.184 112.837C134.625 114.333 132.62 115.008 130.709 114.236C128.891 113.513 129.963 112.162 130.383 111.245C130.476 111.052 130.523 110.908 130.616 110.715C131.921 107.724 132.48 104.733 132.154 101.405C131.828 97.9797 132.574 94.7477 134.671 91.7569C135.65 90.358 135.65 88.1873 136.116 86.4024C137.095 82.7363 137.934 79.0219 139.1 75.4523C139.846 73.0886 141.104 70.8696 142.083 68.5541C139.752 67.7823 137.561 67.107 135.464 66.3352C133.273 65.5151 132.62 64.2127 133.226 61.9937C134.392 57.7969 135.277 53.5037 136.955 49.5481C137.794 47.5221 139.939 45.9785 141.617 44.3866C143.715 42.4571 143.948 41.637 142.363 39.3216C140.405 36.5237 140.871 33.3882 141.57 30.4457C141.57 30.3974 141.617 30.3492 141.617 30.3009C141.803 29.6738 142.316 29.1432 142.922 28.8055C144.414 27.9855 146.698 27.889 148.283 28.8055C148.469 28.902 148.609 28.9985 148.796 29.1432C149.262 29.5291 149.681 29.915 150.008 30.3009C150.66 31.121 150.987 32.134 150.614 33.5329C150.287 34.6906 150.707 36.0896 150.707 37.3438C150.66 38.5497 150.474 39.7557 150.334 41.4923C152.571 41.7335 154.669 41.83 156.72 42.1676C157.746 42.3606 158.771 42.7465 159.61 43.3736C160.916 44.3384 162.174 45.4478 163.2 46.7021C166.043 50.2235 168.094 54.179 168.327 58.8582C168.467 61.9937 168.98 64.888 171.264 67.3482C172.057 68.1682 172.336 69.8566 172.29 71.159C172.29 71.3037 172.243 71.4967 172.196 71.6414C172.15 71.7379 172.103 71.7861 172.103 71.8344ZM139.146 98.7997C140.218 95.8089 141.337 93.0111 143.388 90.6474C143.948 89.9721 144.554 89.345 145.16 88.7179C146.511 87.2707 147.863 85.8236 148.935 84.0387C148.982 85.0035 148.982 85.8718 148.702 86.4507C147.537 88.6214 146.092 90.6957 144.693 92.6734C144.227 93.3488 143.761 94.0241 143.295 94.6995C143.109 94.9407 142.969 95.2301 142.782 95.5195C142.363 96.1949 141.897 96.9184 141.43 97.1596C140.452 97.5938 139.706 98.1726 139.146 98.7997ZM140.032 58.7135C139.426 59.823 138.96 60.6913 138.214 62.0419C139.006 62.5726 139.752 63.1514 140.545 63.682C140.591 62.7173 140.731 61.8007 140.638 60.836C140.591 60.2089 140.312 59.5818 140.032 58.7135ZM139.799 62.0902L139.333 61.7525L139.799 60.836V60.8842C139.846 61.2701 139.846 61.656 139.799 62.0902ZM140.638 60.836C140.591 60.2089 140.312 59.63 140.032 58.7135C139.426 59.823 138.96 60.6913 138.214 62.0419C139.006 62.5726 139.752 63.1514 140.545 63.682C140.591 62.7173 140.685 61.7525 140.638 60.836ZM139.799 62.0902L139.333 61.7525L139.799 60.836V60.8842C139.846 61.2701 139.846 61.656 139.799 62.0902ZM165.484 67.4446C165.064 68.4577 164.412 69.2295 164.645 70.1943C164.598 69.4224 165.111 68.3129 165.484 67.4446ZM165.297 70.9178C165.064 70.8696 164.924 70.7249 164.831 70.5802C164.831 70.6284 164.831 70.6284 164.878 70.6766C164.924 70.8214 165.111 70.9661 165.297 70.9178ZM165.624 70.8214C166.37 70.5319 166.742 69.8566 167.535 68.8436C166.836 69.7601 166.09 70.5319 165.624 70.8214ZM169.679 72.6062C169.959 73.1368 170.239 73.6674 170.518 74.2945C170.845 73.7157 171.217 73.2333 171.544 72.7991C171.031 73.4262 170.052 73.3298 169.679 72.6062ZM140.638 60.836C140.591 60.2089 140.312 59.63 140.032 58.7135C139.426 59.823 138.96 60.6913 138.214 62.0419C139.006 62.5726 139.752 63.1514 140.545 63.682C140.591 62.7173 140.685 61.7525 140.638 60.836ZM139.799 62.0902L139.333 61.7525L139.799 60.836V60.8842C139.846 61.2701 139.846 61.656 139.799 62.0902ZM140.638 60.836C140.591 60.2089 140.312 59.63 140.032 58.7135C139.426 59.823 138.96 60.6913 138.214 62.0419C139.006 62.5726 139.752 63.1514 140.545 63.682C140.591 62.7173 140.685 61.7525 140.638 60.836ZM139.799 62.0902L139.333 61.7525L139.799 60.836V60.8842C139.846 61.2701 139.846 61.656 139.799 62.0902ZM165.484 67.4446C165.064 68.4577 164.412 69.2295 164.645 70.1943C164.598 69.4224 165.111 68.3129 165.484 67.4446ZM165.297 70.9178C165.064 70.8696 164.924 70.7249 164.831 70.5802C164.831 70.6284 164.831 70.6284 164.878 70.6766C164.924 70.8214 165.111 70.9661 165.297 70.9178ZM165.624 70.8214C166.37 70.5319 166.742 69.8566 167.535 68.8436C166.836 69.7601 166.09 70.5319 165.624 70.8214ZM169.679 72.6062C169.959 73.1368 170.239 73.6674 170.518 74.2945C170.845 73.7157 171.217 73.2333 171.544 72.7991C171.031 73.4262 170.052 73.3298 169.679 72.6062ZM140.638 60.836C140.591 60.2089 140.312 59.63 140.032 58.7135C139.426 59.823 138.96 60.6913 138.214 62.0419C139.006 62.5726 139.752 63.1514 140.545 63.682C140.591 62.7173 140.685 61.7525 140.638 60.836ZM139.799 62.0902L139.333 61.7525L139.799 60.836V60.8842C139.846 61.2701 139.846 61.656 139.799 62.0902ZM140.638 60.836C140.591 60.2089 140.312 59.63 140.032 58.7135C139.426 59.823 138.96 60.6913 138.214 62.0419C139.006 62.5726 139.752 63.1514 140.545 63.682C140.591 62.7173 140.685 61.7525 140.638 60.836ZM139.799 62.0902L139.333 61.7525L139.799 60.836V60.8842C139.846 61.2701 139.846 61.656 139.799 62.0902ZM165.484 67.4446C165.064 68.4577 164.412 69.2295 164.645 70.1943C164.598 69.4224 165.111 68.3129 165.484 67.4446ZM165.297 70.9178C165.064 70.8696 164.924 70.7249 164.831 70.5802C164.831 70.6284 164.831 70.6284 164.878 70.6766C164.924 70.8214 165.111 70.9661 165.297 70.9178ZM165.624 70.8214C166.37 70.5319 166.742 69.8566 167.535 68.8436C166.836 69.7601 166.09 70.5319 165.624 70.8214ZM169.679 72.6062C169.959 73.1368 170.239 73.6674 170.518 74.2945C170.845 73.7157 171.217 73.2333 171.544 72.7991C171.031 73.4262 170.052 73.3298 169.679 72.6062ZM140.638 60.836C140.591 60.2089 140.312 59.63 140.032 58.7135C139.426 59.823 138.96 60.6913 138.214 62.0419C139.006 62.5726 139.752 63.1514 140.545 63.682C140.591 62.7173 140.685 61.7525 140.638 60.836ZM139.799 62.0902L139.333 61.7525L139.799 60.836V60.8842C139.846 61.2701 139.846 61.656 139.799 62.0902ZM140.638 60.836C140.591 60.2089 140.312 59.63 140.032 58.7135C139.426 59.823 138.96 60.6913 138.214 62.0419C139.006 62.5726 139.752 63.1514 140.545 63.682C140.591 62.7173 140.685 61.7525 140.638 60.836ZM139.799 62.0902L139.333 61.7525L139.799 60.836V60.8842C139.846 61.2701 139.846 61.656 139.799 62.0902ZM165.484 67.4446C165.064 68.4577 164.412 69.2295 164.645 70.1943C164.598 69.4224 165.111 68.3129 165.484 67.4446ZM165.297 70.9178C165.064 70.8696 164.924 70.7249 164.831 70.5802C164.831 70.6284 164.831 70.6284 164.878 70.6766C164.924 70.8214 165.111 70.9661 165.297 70.9178ZM165.624 70.8214C166.37 70.5319 166.742 69.8566 167.535 68.8436C166.836 69.7601 166.09 70.5319 165.624 70.8214ZM169.679 72.6062C169.959 73.1368 170.239 73.6674 170.518 74.2945C170.845 73.7157 171.217 73.2333 171.544 72.7991C171.031 73.4262 170.052 73.3298 169.679 72.6062ZM140.638 60.836C140.591 60.2089 140.312 59.63 140.032 58.7135C139.426 59.823 138.96 60.6913 138.214 62.0419C139.006 62.5726 139.752 63.1514 140.545 63.682C140.591 62.7173 140.685 61.7525 140.638 60.836ZM139.799 62.0902L139.333 61.7525L139.799 60.836V60.8842C139.846 61.2701 139.846 61.656 139.799 62.0902ZM140.638 60.836C140.591 60.2089 140.312 59.63 140.032 58.7135C139.426 59.823 138.96 60.6913 138.214 62.0419C139.006 62.5726 139.752 63.1514 140.545 63.682C140.591 62.7173 140.685 61.7525 140.638 60.836ZM139.799 62.0902L139.333 61.7525L139.799 60.836V60.8842C139.846 61.2701 139.846 61.656 139.799 62.0902ZM165.484 67.4446C165.064 68.4577 164.412 69.2295 164.645 70.1943C164.598 69.4224 165.111 68.3129 165.484 67.4446ZM165.297 70.9178C165.064 70.8696 164.924 70.7249 164.831 70.5802C164.831 70.6284 164.831 70.6284 164.878 70.6766C164.924 70.8214 165.111 70.9661 165.297 70.9178ZM165.624 70.8214C166.37 70.5319 166.742 69.8566 167.535 68.8436C166.836 69.7601 166.09 70.5319 165.624 70.8214ZM169.679 72.6062C169.959 73.1368 170.239 73.6674 170.518 74.2945C170.845 73.7157 171.217 73.2333 171.544 72.7991C171.031 73.4262 170.052 73.3298 169.679 72.6062ZM140.638 60.836C140.591 60.2089 140.312 59.63 140.032 58.7135C139.426 59.823 138.96 60.6913 138.214 62.0419C139.006 62.5726 139.752 63.1514 140.545 63.682C140.591 62.7173 140.685 61.7525 140.638 60.836ZM139.799 62.0902L139.333 61.7525L139.799 60.836V60.8842C139.846 61.2701 139.846 61.656 139.799 62.0902ZM140.638 60.836C140.591 60.2089 140.312 59.63 140.032 58.7135C139.426 59.823 138.96 60.6913 138.214 62.0419C139.006 62.5726 139.752 63.1514 140.545 63.682C140.591 62.7173 140.685 61.7525 140.638 60.836ZM139.799 62.0902L139.333 61.7525L139.799 60.836V60.8842C139.846 61.2701 139.846 61.656 139.799 62.0902ZM165.484 67.4446C165.064 68.4577 164.412 69.2295 164.645 70.1943C164.598 69.4224 165.111 68.3129 165.484 67.4446ZM165.297 70.9178C165.064 70.8696 164.924 70.7249 164.831 70.5802C164.831 70.6284 164.831 70.6284 164.878 70.6766C164.924 70.8214 165.111 70.9661 165.297 70.9178ZM165.624 70.8214C166.37 70.5319 166.742 69.8566 167.535 68.8436C166.836 69.7601 166.09 70.5319 165.624 70.8214ZM169.679 72.6062C169.959 73.1368 170.239 73.6674 170.518 74.2945C170.845 73.7157 171.217 73.2333 171.544 72.7991C171.031 73.4262 170.052 73.3298 169.679 72.6062Z" fill="white"/>
<path d="M156.331 102.122C154.979 100.723 153.208 99.9512 151.25 99.9512C147.288 99.9512 144.211 103.231 144.211 107.332C144.211 107.766 144.258 108.2 144.351 108.586C144.397 108.875 144.491 109.165 144.584 109.454C145.47 112.397 148.173 114.519 151.343 114.519H151.436C154.653 114.471 157.45 112.011 158.195 108.924C158.242 108.827 158.242 108.779 158.242 108.682C158.335 108.2 158.382 107.766 158.382 107.283C158.429 105.354 157.683 103.521 156.331 102.122ZM151.436 113.699C148.686 113.747 146.309 111.963 145.423 109.454C145.33 109.165 145.236 108.875 145.19 108.586C145.097 108.2 145.05 107.766 145.05 107.332C145.05 103.714 147.754 100.819 151.25 100.819C154.699 100.819 157.543 103.714 157.543 107.283C157.543 107.766 157.496 108.2 157.403 108.634C157.403 108.779 157.356 108.875 157.31 109.02C156.611 111.673 154.233 113.699 151.436 113.699Z" fill="white"/>
<mask id="mask4_1_26835" style="mask-type:luminance" maskUnits="userSpaceOnUse" x="34" y="0" width="234" height="241">
<path d="M37.2995 120.5C37.2995 55.7638 88.2032 3.13551 150.714 3.13551C213.225 3.13551 264.129 55.812 264.129 120.5C264.129 185.236 213.225 237.864 150.714 237.864C88.2032 237.864 37.2995 185.236 37.2995 120.5ZM34.2695 120.5C34.2695 186.973 86.525 241 150.714 241C214.95 241 267.158 186.925 267.158 120.5C267.158 54.0755 214.903 0 150.714 0C86.4784 0 34.2695 54.0755 34.2695 120.5Z" fill="white"/>
</mask>
<g mask="url(#mask4_1_26835)">
<path d="M34.2383 243.889L31.4414 0.0427532L267.127 -2.85156L269.924 240.995L34.2383 243.889Z" fill="url(#paint4_linear_1_26835)"/>
</g>
<path d="M306.727 164.644H264.82V156.443H40.5085V165.367H0L19.9513 186.158L0 206.949H44.0979V198.266H261.184V207.432H306.727L286.03 186.014L306.727 164.644Z" fill="white"/>
<mask id="mask5_1_26835" style="mask-type:luminance" maskUnits="userSpaceOnUse" x="7" y="168" width="35" height="36">
<path d="M7.07031 168.4L24.0848 186.152L7.07031 203.856H41.1459V168.4H7.07031Z" fill="white"/>
</mask>
<g mask="url(#mask5_1_26835)">
<path d="M41.0993 168.4H7.07031V203.856H41.0993V168.4Z" fill="url(#paint5_linear_1_26835)"/>
</g>
<mask id="mask6_1_26835" style="mask-type:luminance" maskUnits="userSpaceOnUse" x="264" y="167" width="36" height="38">
<path d="M264.074 167.682V204.343H299.502L281.788 186.012L299.502 167.682H264.074Z" fill="white"/>
</mask>
<g mask="url(#mask6_1_26835)">
<path d="M299.502 167.682H264.074V204.391H299.502V167.682Z" fill="url(#paint6_linear_1_26835)"/>
</g>
<path d="M261.884 159.521H43.4453V195.218H261.884V159.521Z" fill="url(#paint7_linear_1_26835)"/>
<path d="M99.5904 178.34H106.303V175.783H99.5904V172.406H111.058V169.85H96.1875V184.852H111.198V182.054H99.5904V178.34Z" fill="white"/>
<path d="M127.867 184.852H131.27V178.34H137.983V175.783H131.27V172.406H142.737V169.85H127.867V184.852Z" fill="white"/>
<path d="M164.623 170.621C164.111 170.139 163.178 169.85 161.78 169.85H151.105C149.707 169.85 148.728 170.091 148.261 170.621C147.749 171.104 147.516 172.069 147.516 173.419V181.33C147.516 182.729 147.749 183.646 148.261 184.128C148.774 184.611 149.707 184.852 151.105 184.852H161.733C163.132 184.852 164.111 184.611 164.577 184.128C165.09 183.646 165.323 182.681 165.323 181.33V173.419C165.369 172.02 165.09 171.104 164.623 170.621ZM161.966 182.054H150.825V172.551H161.966V182.054Z" fill="white"/>
<path d="M187.1 170.621C186.587 170.139 185.655 169.85 184.256 169.85H173.582C172.183 169.85 171.204 170.091 170.738 170.621C170.225 171.104 169.992 172.069 169.992 173.419V181.33C169.992 182.729 170.225 183.646 170.738 184.128C171.251 184.611 172.183 184.852 173.582 184.852H184.256C185.655 184.852 186.634 184.611 187.1 184.128C187.613 183.646 187.846 182.681 187.846 181.33V173.419C187.846 172.02 187.566 171.104 187.1 170.621ZM184.489 182.054H173.348V172.551H184.489V182.054Z" fill="white"/>
<path d="M192.449 172.551H199.115V184.852H202.471V172.551H209.184V169.85H192.449V172.551Z" fill="white"/>
<path d="M121.826 175.098H116.978C116.418 175.098 116.092 175.146 115.952 175.291C115.812 175.435 115.766 175.725 115.766 176.159V178.523C115.766 178.957 115.812 179.198 115.905 179.391C115.999 179.536 116.185 179.632 116.418 179.632H121.266C121.826 179.632 122.199 179.584 122.292 179.439C122.385 179.294 122.478 179.005 122.478 178.571V176.207C122.478 175.773 122.432 175.484 122.338 175.339C122.245 175.194 122.059 175.098 121.826 175.098Z" fill="white"/>
<defs>
<linearGradient id="paint0_linear_1_26835" x1="150.335" y1="8.32812" x2="150.335" y2="234.905" gradientUnits="userSpaceOnUse">
<stop stop-color="#4A00E8"/>
<stop offset="1" stop-color="#3B3EFF"/>
</linearGradient>
<linearGradient id="paint1_linear_1_26835" x1="150.746" y1="11.7051" x2="150.746" y2="229.309" gradientUnits="userSpaceOnUse">
<stop stop-color="#4A00E8"/>
<stop offset="1" stop-color="#3B3EFF"/>
</linearGradient>
<linearGradient id="paint2_linear_1_26835" x1="150.845" y1="27.459" x2="150.845" y2="115.446" gradientUnits="userSpaceOnUse">
<stop stop-color="#4A00E8"/>
<stop offset="1" stop-color="#3B3EFF"/>
</linearGradient>
<linearGradient id="paint3_linear_1_26835" x1="151.348" y1="100.105" x2="151.348" y2="114.432" gradientUnits="userSpaceOnUse">
<stop stop-color="#4A00E8"/>
<stop offset="1" stop-color="#3B3EFF"/>
</linearGradient>
<linearGradient id="paint4_linear_1_26835" x1="150.683" y1="-2.85156" x2="150.683" y2="243.889" gradientUnits="userSpaceOnUse">
<stop stop-color="#4A00E8"/>
<stop offset="1" stop-color="#3B3EFF"/>
</linearGradient>
<linearGradient id="paint5_linear_1_26835" x1="24.0848" y1="168.4" x2="24.0848" y2="203.856" gradientUnits="userSpaceOnUse">
<stop stop-color="#4A00E8"/>
<stop offset="1" stop-color="#3B3EFF"/>
</linearGradient>
<linearGradient id="paint6_linear_1_26835" x1="281.788" y1="167.682" x2="281.788" y2="204.391" gradientUnits="userSpaceOnUse">
<stop stop-color="#4A00E8"/>
<stop offset="1" stop-color="#3B3EFF"/>
</linearGradient>
<linearGradient id="paint7_linear_1_26835" x1="152.664" y1="159.521" x2="152.664" y2="195.218" gradientUnits="userSpaceOnUse">
<stop stop-color="#4A00E8"/>
<stop offset="1" stop-color="#3B3EFF"/>
</linearGradient>
</defs>
</svg>
