<svg width="84" height="12" viewBox="0 0 84 12" fill="none" xmlns="http://www.w3.org/2000/svg">
<path d="M2.52968 6.37511H7.51971V4.45534H2.52968V1.91979H11.0543V0H0V11.2651H11.1583V9.16422H2.52968V6.37511Z" fill="white"/>
<path d="M23.5508 11.2651H26.0805V6.37511H31.0705V4.45534H26.0805V1.91979H34.6051V0H23.5508V11.2651Z" fill="white"/>
<path d="M50.8739 0.579567C50.4927 0.217346 49.7997 0 48.7601 0H40.8245C39.7849 0 39.0572 0.181124 38.7107 0.579567C38.3295 0.941789 38.1562 1.66623 38.1562 2.68045V8.62088C38.1562 9.67133 38.3295 10.3595 38.7107 10.7218C39.0919 11.084 39.7849 11.2651 40.8245 11.2651H48.7254C49.765 11.2651 50.4927 11.084 50.8392 10.7218C51.2204 10.3595 51.3937 9.63511 51.3937 8.62088V2.68045C51.4284 1.63 51.2204 0.941789 50.8739 0.579567ZM48.8987 9.16422H40.6166V2.02845H48.8987V9.16422Z" fill="white"/>
<path d="M67.5849 0.579567C67.2037 0.217346 66.5106 0 65.471 0H57.5355C56.4959 0 55.7682 0.181124 55.4216 0.579567C55.0405 0.941789 54.8672 1.66623 54.8672 2.68045V8.62088C54.8672 9.67133 55.0405 10.3595 55.4216 10.7218C55.8028 11.084 56.4959 11.2651 57.5355 11.2651H65.471C66.5106 11.2651 67.2383 11.084 67.5849 10.7218C67.966 10.3595 68.1393 9.63511 68.1393 8.62088V2.68045C68.1393 1.63 67.9314 0.941789 67.5849 0.579567ZM65.6443 9.16422H57.3622V2.02845H65.6443V9.16422Z" fill="white"/>
<path d="M71.5586 2.02845H76.514V11.2651H79.009V2.02845H83.999V0H71.5586V2.02845Z" fill="white"/>
<path d="M19.0596 3.94141H15.4557C15.0398 3.94141 14.7973 3.97764 14.6933 4.0863C14.5893 4.19497 14.5547 4.4123 14.5547 4.7383V6.51317C14.5547 6.83917 14.5893 7.0203 14.6587 7.16519C14.728 7.27385 14.8666 7.3463 15.0398 7.3463H18.6438C19.0596 7.3463 19.3368 7.31006 19.4061 7.2014C19.4754 7.09273 19.5447 6.8754 19.5447 6.5494V4.77451C19.5447 4.44851 19.5101 4.23118 19.4408 4.12252C19.3715 4.01385 19.2328 3.94141 19.0596 3.94141Z" fill="white"/>
</svg>
