<svg width="20" height="20" viewBox="0 0 16 16" fill="none" xmlns="http://www.w3.org/2000/svg">
<path d="M12.0538 8.27949L7.93376 12.4062C7.39364 12.8862 6.69053 13.1417 5.96825 13.1204C5.24596 13.0991 4.5591 12.8027 4.04815 12.2918C3.5372 11.7808 3.24077 11.094 3.21951 10.3717C3.19825 9.64939 3.45375 8.94628 3.93377 8.40616L9.2671 3.07282C9.58551 2.77036 10.0079 2.60171 10.4471 2.60171C10.8863 2.60171 11.3087 2.77036 11.6271 3.07282C11.9373 3.38722 12.1113 3.81114 12.1113 4.25282C12.1113 4.69451 11.9373 5.11843 11.6271 5.43282L7.0271 10.0262C6.98157 10.0752 6.92684 10.1148 6.86602 10.1426C6.8052 10.1705 6.73948 10.1861 6.67262 10.1886C6.60576 10.1911 6.53907 10.1804 6.47636 10.1571C6.41364 10.1338 6.35613 10.0983 6.3071 10.0528C6.25807 10.0073 6.21849 9.95256 6.19062 9.89174C6.16275 9.83092 6.14712 9.7652 6.14465 9.69835C6.14217 9.63149 6.15289 9.5648 6.17619 9.50208C6.19948 9.43936 6.23491 9.38185 6.28043 9.33282L9.70043 5.91949C9.82597 5.79395 9.89649 5.62369 9.89649 5.44616C9.89649 5.26862 9.82597 5.09836 9.70043 4.97282C9.5749 4.84729 9.40463 4.77676 9.2271 4.77676C9.04956 4.77676 8.8793 4.84729 8.75377 4.97282L5.33377 8.39949C5.16264 8.56929 5.02681 8.77129 4.93412 8.99384C4.84143 9.21638 4.79371 9.45508 4.79371 9.69616C4.79371 9.93723 4.84143 10.1759 4.93412 10.3985C5.02681 10.621 5.16264 10.823 5.33377 10.9928C5.68335 11.3258 6.14764 11.5116 6.63043 11.5116C7.11323 11.5116 7.57752 11.3258 7.9271 10.9928L12.5204 6.39282C13.0504 5.82412 13.3388 5.07194 13.3251 4.29473C13.3114 3.51753 12.9966 2.77599 12.4469 2.22634C11.8973 1.67668 11.1557 1.36184 10.3785 1.34812C9.60132 1.33441 8.84913 1.6229 8.28043 2.15282L2.9471 7.48616C2.2279 8.28271 1.84378 9.32606 1.87479 10.3988C1.90579 11.4716 2.34952 12.491 3.11352 13.2447C3.87753 13.9984 4.90288 14.4282 5.97595 14.4446C7.04903 14.461 8.08706 14.0628 8.87377 13.3328L13.0004 9.21282C13.0626 9.15066 13.1119 9.07687 13.1455 8.99566C13.1792 8.91444 13.1965 8.8274 13.1965 8.73949C13.1965 8.65158 13.1792 8.56454 13.1455 8.48332C13.1119 8.40211 13.0626 8.32832 13.0004 8.26616C12.9383 8.204 12.8645 8.15469 12.7833 8.12105C12.7021 8.08741 12.615 8.0701 12.5271 8.0701C12.4392 8.0701 12.3521 8.08741 12.2709 8.12105C12.1897 8.15469 12.1159 8.204 12.0538 8.26616V8.27949Z" fill="#D1CBD8"/>
</svg>
