<svg width="22" height="28" viewBox="0 0 22 28" fill="none" xmlns="http://www.w3.org/2000/svg">
<path d="M19.0007 15.5746V11.3346C18.9987 9.44547 18.3283 7.61793 17.1081 6.17567C15.888 4.73341 14.1967 3.7695 12.334 3.45464V2.0013C12.334 1.64768 12.1935 1.30854 11.9435 1.05849C11.6934 0.808444 11.3543 0.667969 11.0007 0.667969C10.647 0.667969 10.3079 0.808444 10.0578 1.05849C9.80779 1.30854 9.66732 1.64768 9.66732 2.0013V3.45464C7.80457 3.7695 6.11335 4.73341 4.89317 6.17567C3.67298 7.61793 3.00257 9.44547 3.00065 11.3346V15.5746C2.22259 15.8497 1.54865 16.3587 1.07124 17.0319C0.593822 17.705 0.336304 18.5094 0.333984 19.3346V22.0013C0.333984 22.3549 0.47446 22.6941 0.724509 22.9441C0.974557 23.1942 1.3137 23.3346 1.66732 23.3346H5.85398C6.16103 24.4645 6.83132 25.4619 7.76145 26.1729C8.69157 26.884 9.82985 27.2693 11.0007 27.2693C12.1715 27.2693 13.3097 26.884 14.2399 26.1729C15.17 25.4619 15.8403 24.4645 16.1473 23.3346H20.334C20.6876 23.3346 21.0267 23.1942 21.2768 22.9441C21.5268 22.6941 21.6673 22.3549 21.6673 22.0013V19.3346C21.665 18.5094 21.4075 17.705 20.9301 17.0319C20.4527 16.3587 19.7787 15.8497 19.0007 15.5746ZM5.66732 11.3346C5.66732 9.92015 6.22922 8.56359 7.22941 7.5634C8.22961 6.56321 9.58616 6.0013 11.0007 6.0013C12.4151 6.0013 13.7717 6.56321 14.7719 7.5634C15.7721 8.56359 16.334 9.92015 16.334 11.3346V15.3346H5.66732V11.3346ZM11.0007 24.668C10.5353 24.6652 10.0787 24.5406 9.67643 24.3067C9.2741 24.0728 8.94 23.7377 8.70732 23.3346H13.294C13.0613 23.7377 12.7272 24.0728 12.3249 24.3067C11.9226 24.5406 11.466 24.6652 11.0007 24.668ZM19.0007 20.668H3.00065V19.3346C3.00065 18.981 3.14113 18.6419 3.39118 18.3918C3.64122 18.1418 3.98036 18.0013 4.33398 18.0013H17.6673C18.0209 18.0013 18.3601 18.1418 18.6101 18.3918C18.8602 18.6419 19.0007 18.981 19.0007 19.3346V20.668Z" fill="#D1CBD8"/>
</svg>
