<svg width="20" height="20" viewBox="0 0 14 12" fill="none" xmlns="http://www.w3.org/2000/svg">
<path d="M11.6663 2.334H10.813L10.5997 1.66733C10.4614 1.27615 10.2048 0.937668 9.86561 0.698773C9.52638 0.459878 9.12125 0.3324 8.70634 0.333999H5.29301C4.87404 0.334783 4.4659 0.467121 4.12619 0.712336C3.78647 0.957551 3.53235 1.30326 3.39967 1.70067L3.18634 2.36733H2.33301C1.80257 2.36733 1.29387 2.57805 0.918794 2.95312C0.543722 3.32819 0.333008 3.8369 0.333008 4.36733V9.70066C0.333008 10.2311 0.543722 10.7398 0.918794 11.1149C1.29387 11.49 1.80257 11.7007 2.33301 11.7007H11.6663C12.1968 11.7007 12.7055 11.49 13.0806 11.1149C13.4556 10.7398 13.6663 10.2311 13.6663 9.70066V4.36733C13.6708 4.1019 13.6223 3.83824 13.5238 3.59172C13.4252 3.34521 13.2786 3.12078 13.0925 2.93152C12.9063 2.74226 12.6843 2.59195 12.4395 2.48936C12.1946 2.38678 11.9318 2.33396 11.6663 2.334ZM12.333 9.66733C12.333 9.84414 12.2628 10.0137 12.1377 10.1387C12.0127 10.2638 11.8432 10.334 11.6663 10.334H2.33301C2.1562 10.334 1.98663 10.2638 1.8616 10.1387C1.73658 10.0137 1.66634 9.84414 1.66634 9.66733V4.334C1.66634 4.15719 1.73658 3.98762 1.8616 3.86259C1.98663 3.73757 2.1562 3.66733 2.33301 3.66733H3.66634C3.81172 3.67492 3.95558 3.63471 4.07596 3.55286C4.19634 3.471 4.28662 3.35199 4.33301 3.214L4.69301 2.12067C4.73773 1.98825 4.82294 1.87324 4.93659 1.79189C5.05024 1.71055 5.18658 1.66697 5.32634 1.66733H8.73967C8.87944 1.66697 9.01578 1.71055 9.12943 1.79189C9.24308 1.87324 9.32828 1.98825 9.37301 2.12067L9.73301 3.214C9.77579 3.34116 9.85594 3.45246 9.96299 3.53334C10.07 3.61422 10.199 3.66092 10.333 3.66733H11.6663C11.8432 3.66733 12.0127 3.73757 12.1377 3.86259C12.2628 3.98762 12.333 4.15719 12.333 4.334V9.66733ZM6.99967 3.66733C6.47226 3.66733 5.95669 3.82373 5.51815 4.11675C5.07962 4.40976 4.73783 4.82624 4.536 5.31351C4.33416 5.80078 4.28135 6.33696 4.38425 6.85424C4.48714 7.37152 4.74112 7.84668 5.11406 8.21962C5.487 8.59256 5.96215 8.84653 6.47943 8.94943C6.99672 9.05232 7.53289 8.99951 8.02016 8.79768C8.50743 8.59584 8.92391 8.25405 9.21693 7.81552C9.50994 7.37699 9.66634 6.86141 9.66634 6.334C9.66634 5.62675 9.38539 4.94848 8.88529 4.44838C8.3852 3.94828 7.70692 3.66733 6.99967 3.66733ZM6.99967 7.66733C6.73597 7.66733 6.47818 7.58913 6.25891 7.44262C6.03965 7.29612 5.86875 7.08788 5.76784 6.84424C5.66692 6.60061 5.64051 6.33252 5.69196 6.07388C5.74341 5.81524 5.8704 5.57766 6.05687 5.39119C6.24334 5.20472 6.48091 5.07773 6.73955 5.02628C6.9982 4.97484 7.26628 5.00124 7.50992 5.10216C7.75355 5.20308 7.96179 5.37397 8.1083 5.59324C8.25481 5.8125 8.33301 6.07029 8.33301 6.334C8.33301 6.68762 8.19253 7.02676 7.94248 7.27681C7.69243 7.52685 7.3533 7.66733 6.99967 7.66733Z" fill="#D1CBD8"/>
</svg>
