<svg width="32" height="32" viewBox="0 0 28 28" fill="none" xmlns="http://www.w3.org/2000/svg">
<g opacity="0.6">
<path d="M9.33367 12.832C9.10292 12.832 8.87736 12.9005 8.6855 13.0286C8.49364 13.1568 8.34411 13.3391 8.25581 13.5522C8.1675 13.7654 8.1444 14 8.18942 14.2263C8.23443 14.4526 8.34555 14.6605 8.50871 14.8237C8.67187 14.9868 8.87975 15.0979 9.10606 15.1429C9.33237 15.188 9.56695 15.1649 9.78013 15.0766C9.99331 14.9883 10.1755 14.8387 10.3037 14.6469C10.4319 14.455 10.5003 14.2294 10.5003 13.9987C10.5003 13.6893 10.3774 13.3925 10.1586 13.1737C9.93983 12.9549 9.64309 12.832 9.33367 12.832ZM14.0003 12.832C13.7696 12.832 13.544 12.9005 13.3522 13.0286C13.1603 13.1568 13.0108 13.3391 12.9225 13.5522C12.8342 13.7654 12.8111 14 12.8561 14.2263C12.9011 14.4526 13.0122 14.6605 13.1754 14.8237C13.3385 14.9868 13.5464 15.0979 13.7727 15.1429C13.999 15.188 14.2336 15.1649 14.4468 15.0766C14.66 14.9883 14.8422 14.8387 14.9704 14.6469C15.0986 14.455 15.167 14.2294 15.167 13.9987C15.167 13.6893 15.0441 13.3925 14.8253 13.1737C14.6065 12.9549 14.3098 12.832 14.0003 12.832ZM18.667 12.832C18.4363 12.832 18.2107 12.9005 18.0188 13.0286C17.827 13.1568 17.6774 13.3391 17.5891 13.5522C17.5008 13.7654 17.4777 14 17.5228 14.2263C17.5678 14.4526 17.6789 14.6605 17.842 14.8237C18.0052 14.9868 18.2131 15.0979 18.4394 15.1429C18.6657 15.188 18.9003 15.1649 19.1135 15.0766C19.3266 14.9883 19.5089 14.8387 19.6371 14.6469C19.7652 14.455 19.8337 14.2294 19.8337 13.9987C19.8337 13.6893 19.7108 13.3925 19.492 13.1737C19.2732 12.9549 18.9764 12.832 18.667 12.832ZM14.0003 2.33203C12.4682 2.33203 10.9512 2.6338 9.53569 3.2201C8.12023 3.80641 6.8341 4.66577 5.75075 5.74912C3.56283 7.93704 2.33367 10.9045 2.33367 13.9987C2.32347 16.6927 3.25626 19.3053 4.97033 21.3837L2.637 23.717C2.47511 23.8811 2.36545 24.0894 2.32185 24.3157C2.27825 24.5421 2.30266 24.7762 2.392 24.9887C2.4889 25.1986 2.64599 25.375 2.84332 25.4955C3.04065 25.616 3.26933 25.6751 3.50033 25.6654H14.0003C17.0945 25.6654 20.062 24.4362 22.2499 22.2483C24.4378 20.0604 25.667 17.0929 25.667 13.9987C25.667 10.9045 24.4378 7.93704 22.2499 5.74912C20.062 3.56119 17.0945 2.33203 14.0003 2.33203ZM14.0003 23.332H6.312L7.397 22.247C7.50724 22.139 7.59493 22.0101 7.65501 21.8679C7.71509 21.7258 7.74636 21.5731 7.747 21.4187C7.74262 21.111 7.61682 20.8174 7.397 20.602C5.86935 19.0761 4.91804 17.0677 4.70514 14.919C4.49224 12.7703 5.03093 10.6142 6.22943 8.81814C7.42793 7.02208 9.21209 5.69712 11.2779 5.069C13.3438 4.44088 15.5635 4.54847 17.5589 5.37343C19.5543 6.19839 21.202 7.68969 22.2212 9.59324C23.2404 11.4968 23.568 13.6948 23.1483 15.8129C22.7286 17.9309 21.5875 19.8379 19.9195 21.209C18.2514 22.58 16.1596 23.3303 14.0003 23.332Z" fill="#D1CBD8"/>
</g>
</svg>
