<svg width="28" height="28" viewBox="0 0 28 28" fill="none" xmlns="http://www.w3.org/2000/svg">
<path d="M11.6673 15.1673H3.50065C3.19123 15.1673 2.89449 15.2902 2.67569 15.509C2.4569 15.7278 2.33398 16.0246 2.33398 16.334V24.5006C2.33398 24.8101 2.4569 25.1068 2.67569 25.3256C2.89449 25.5444 3.19123 25.6673 3.50065 25.6673H11.6673C11.9767 25.6673 12.2735 25.5444 12.4923 25.3256C12.7111 25.1068 12.834 24.8101 12.834 24.5006V16.334C12.834 16.0246 12.7111 15.7278 12.4923 15.509C12.2735 15.2902 11.9767 15.1673 11.6673 15.1673ZM10.5007 23.334H4.66732V17.5006H10.5007V23.334ZM24.5006 2.33398H16.334C16.0246 2.33398 15.7278 2.4569 15.509 2.67569C15.2902 2.89449 15.1673 3.19123 15.1673 3.50065V11.6673C15.1673 11.9767 15.2902 12.2735 15.509 12.4923C15.7278 12.7111 16.0246 12.834 16.334 12.834H24.5006C24.8101 12.834 25.1068 12.7111 25.3256 12.4923C25.5444 12.2735 25.6673 11.9767 25.6673 11.6673V3.50065C25.6673 3.19123 25.5444 2.89449 25.3256 2.67569C25.1068 2.4569 24.8101 2.33398 24.5006 2.33398ZM23.334 10.5007H17.5006V4.66732H23.334V10.5007ZM24.5006 15.1673H16.334C16.0246 15.1673 15.7278 15.2902 15.509 15.509C15.2902 15.7278 15.1673 16.0246 15.1673 16.334V24.5006C15.1673 24.8101 15.2902 25.1068 15.509 25.3256C15.7278 25.5444 16.0246 25.6673 16.334 25.6673H24.5006C24.8101 25.6673 25.1068 25.5444 25.3256 25.3256C25.5444 25.1068 25.6673 24.8101 25.6673 24.5006V16.334C25.6673 16.0246 25.5444 15.7278 25.3256 15.509C25.1068 15.2902 24.8101 15.1673 24.5006 15.1673ZM23.334 23.334H17.5006V17.5006H23.334V23.334ZM11.6673 2.33398H3.50065C3.19123 2.33398 2.89449 2.4569 2.67569 2.67569C2.4569 2.89449 2.33398 3.19123 2.33398 3.50065V11.6673C2.33398 11.9767 2.4569 12.2735 2.67569 12.4923C2.89449 12.7111 3.19123 12.834 3.50065 12.834H11.6673C11.9767 12.834 12.2735 12.7111 12.4923 12.4923C12.7111 12.2735 12.834 11.9767 12.834 11.6673V3.50065C12.834 3.19123 12.7111 2.89449 12.4923 2.67569C12.2735 2.4569 11.9767 2.33398 11.6673 2.33398ZM10.5007 10.5007H4.66732V4.66732H10.5007V10.5007Z" fill="#D1CBD8"/>
</svg>
