<svg width="28" height="16" viewBox="0 0 28 16" fill="none" xmlns="http://www.w3.org/2000/svg">
<path d="M1.99935 2.66667H25.9994C26.353 2.66667 26.6921 2.52619 26.9422 2.27614C27.1922 2.02609 27.3327 1.68696 27.3327 1.33333C27.3327 0.979711 27.1922 0.640573 26.9422 0.390525C26.6921 0.140476 26.353 0 25.9994 0H1.99935C1.64573 0 1.30659 0.140476 1.05654 0.390525C0.806491 0.640573 0.666016 0.979711 0.666016 1.33333C0.666016 1.68696 0.806491 2.02609 1.05654 2.27614C1.30659 2.52619 1.64573 2.66667 1.99935 2.66667ZM25.9994 13.3333H1.99935C1.64573 13.3333 1.30659 13.4738 1.05654 13.7239C0.806491 13.9739 0.666016 14.313 0.666016 14.6667C0.666016 15.0203 0.806491 15.3594 1.05654 15.6095C1.30659 15.8595 1.64573 16 1.99935 16H25.9994C26.353 16 26.6921 15.8595 26.9422 15.6095C27.1922 15.3594 27.3327 15.0203 27.3327 14.6667C27.3327 14.313 27.1922 13.9739 26.9422 13.7239C26.6921 13.4738 26.353 13.3333 25.9994 13.3333ZM25.9994 6.66667H1.99935C1.64573 6.66667 1.30659 6.80714 1.05654 7.05719C0.806491 7.30724 0.666016 7.64638 0.666016 8C0.666016 8.35362 0.806491 8.69276 1.05654 8.94281C1.30659 9.19286 1.64573 9.33333 1.99935 9.33333H25.9994C26.353 9.33333 26.6921 9.19286 26.9422 8.94281C27.1922 8.69276 27.3327 8.35362 27.3327 8C27.3327 7.64638 27.1922 7.30724 26.9422 7.05719C26.6921 6.80714 26.353 6.66667 25.9994 6.66667Z" fill="#D1CBD8"/>
</svg>
