<svg width="25" height="25" viewBox="0 0 34 34" fill="none" xmlns="http://www.w3.org/2000/svg">
<path d="M31.9997 17.0001C31.5576 17.0001 31.1337 17.1757 30.8212 17.4882C30.5086 17.8008 30.333 18.2247 30.333 18.6667V28.6667C30.333 29.1088 30.1574 29.5327 29.8448 29.8452C29.5323 30.1578 29.1084 30.3334 28.6663 30.3334H5.33301C4.89098 30.3334 4.46706 30.1578 4.1545 29.8452C3.84194 29.5327 3.66634 29.1088 3.66634 28.6667V5.33339C3.66634 4.89137 3.84194 4.46744 4.1545 4.15488C4.46706 3.84232 4.89098 3.66673 5.33301 3.66673H15.333C15.775 3.66673 16.199 3.49113 16.5115 3.17857C16.8241 2.86601 16.9997 2.44209 16.9997 2.00006C16.9997 1.55803 16.8241 1.13411 16.5115 0.82155C16.199 0.508989 15.775 0.333394 15.333 0.333394H5.33301C4.00692 0.333394 2.73516 0.860179 1.79747 1.79786C0.859792 2.73554 0.333008 4.00731 0.333008 5.33339V28.6667C0.333008 29.9928 0.859792 31.2646 1.79747 32.2023C2.73516 33.1399 4.00692 33.6667 5.33301 33.6667H28.6663C29.9924 33.6667 31.2642 33.1399 32.2019 32.2023C33.1396 31.2646 33.6663 29.9928 33.6663 28.6667V18.6667C33.6663 18.2247 33.4907 17.8008 33.1782 17.4882C32.8656 17.1757 32.4417 17.0001 31.9997 17.0001ZM6.99967 18.2667V25.3334C6.99967 25.7754 7.17527 26.1993 7.48783 26.5119C7.80039 26.8245 8.22431 27.0001 8.66634 27.0001H15.733C15.9523 27.0013 16.1698 26.9593 16.3728 26.8763C16.5759 26.7934 16.7606 26.6712 16.9163 26.5167L28.4497 14.9667L33.183 10.3334C33.3392 10.1785 33.4632 9.99412 33.5478 9.79102C33.6324 9.58792 33.676 9.37008 33.676 9.15006C33.676 8.93004 33.6324 8.7122 33.5478 8.5091C33.4632 8.306 33.3392 8.12166 33.183 7.96673L26.1163 0.816728C25.9614 0.660514 25.7771 0.536523 25.574 0.451909C25.3709 0.367294 25.153 0.32373 24.933 0.32373C24.713 0.32373 24.4951 0.367294 24.292 0.451909C24.0889 0.536523 23.9046 0.660514 23.7497 0.816728L19.0497 5.53339L7.48301 17.0834C7.32854 17.2391 7.20633 17.4238 7.12339 17.6269C7.04045 17.8299 6.9984 18.0474 6.99967 18.2667ZM24.933 4.35006L29.6497 9.06673L27.283 11.4334L22.5663 6.71673L24.933 4.35006ZM10.333 18.9501L20.2163 9.06673L24.933 13.7834L15.0497 23.6667H10.333V18.9501Z" fill="#D1CBD8"/>
</svg>
