<svg width="40" height="40" viewBox="0 0 40 40" fill="none" xmlns="http://www.w3.org/2000/svg">
<path d="M38.4071 26.8984C38.4079 26.8912 38.4079 26.8838 38.4071 26.8766L35.8462 13.725V13.6969C35.4509 11.5376 34.3113 9.58512 32.6256 8.17892C30.94 6.77273 28.8148 6.00174 26.6196 6H12.8524C10.6511 5.99915 8.51997 6.77452 6.83383 8.18973C5.1477 9.60494 4.01455 11.5694 3.6337 13.7375L1.08526 26.8766C1.08451 26.8838 1.08451 26.8912 1.08526 26.8984C0.877825 28.0763 1.05121 29.2896 1.58024 30.3622C2.10926 31.4348 2.9664 32.3109 4.02719 32.8632C5.08798 33.4156 6.29721 33.6154 7.47932 33.4338C8.66142 33.2522 9.75486 32.6985 10.6009 31.8531L10.6556 31.7953L16.8571 24.75H22.6384L28.8431 31.7953C28.8603 31.8156 28.879 31.8344 28.8978 31.8531C29.9522 32.9053 31.3801 33.4973 32.8696 33.5C33.6907 33.4995 34.5017 33.3192 35.2456 32.9719C35.9896 32.6245 36.6485 32.1185 37.1761 31.4894C37.7037 30.8602 38.0871 30.1232 38.2995 29.3301C38.5119 28.537 38.5481 27.707 38.4056 26.8984H38.4071ZM15.9946 17.25H14.7446V18.5C14.7446 18.8315 14.6129 19.1495 14.3785 19.3839C14.1441 19.6183 13.8262 19.75 13.4946 19.75C13.1631 19.75 12.8452 19.6183 12.6108 19.3839C12.3763 19.1495 12.2446 18.8315 12.2446 18.5V17.25H10.9946C10.6631 17.25 10.3452 17.1183 10.1108 16.8839C9.87633 16.6495 9.74463 16.3315 9.74463 16C9.74463 15.6685 9.87633 15.3505 10.1108 15.1161C10.3452 14.8817 10.6631 14.75 10.9946 14.75H12.2446V13.5C12.2446 13.1685 12.3763 12.8505 12.6108 12.6161C12.8452 12.3817 13.1631 12.25 13.4946 12.25C13.8262 12.25 14.1441 12.3817 14.3785 12.6161C14.6129 12.8505 14.7446 13.1685 14.7446 13.5V14.75H15.9946C16.3262 14.75 16.6441 14.8817 16.8785 15.1161C17.1129 15.3505 17.2446 15.6685 17.2446 16C17.2446 16.3315 17.1129 16.6495 16.8785 16.8839C16.6441 17.1183 16.3262 17.25 15.9946 17.25ZM22.2446 16C22.2446 15.6685 22.3763 15.3505 22.6107 15.1161C22.8452 14.8817 23.1631 14.75 23.4946 14.75H27.2446C27.5762 14.75 27.8941 14.8817 28.1285 15.1161C28.3629 15.3505 28.4946 15.6685 28.4946 16C28.4946 16.3315 28.3629 16.6495 28.1285 16.8839C27.8941 17.1183 27.5762 17.25 27.2446 17.25H23.4946C23.1631 17.25 22.8452 17.1183 22.6107 16.8839C22.3763 16.6495 22.2446 16.3315 22.2446 16ZM35.4274 29.6672C35.1933 30.0043 34.8946 30.2915 34.5486 30.5123C34.2026 30.733 33.8162 30.8829 33.4118 30.9531C32.9226 31.0387 32.4202 31.0069 31.9456 30.8605C31.4711 30.7141 31.0381 30.4572 30.6821 30.1109L25.9634 24.75H26.6196C28.2155 24.7502 29.785 24.343 31.1795 23.567C32.574 22.791 33.7474 21.6719 34.5884 20.3156L35.954 27.3469C36.0235 27.7492 36.0128 28.1614 35.9225 28.5596C35.8321 28.9578 35.6639 29.3342 35.4274 29.6672Z" fill="#D1CBD8"/>
</svg>
