<svg width="35" height="18" viewBox="0 0 35 18" fill="none" xmlns="http://www.w3.org/2000/svg">
<path d="M16.4999 7.3125H14.2499C14.1007 7.3125 13.9576 7.25324 13.8521 7.14775C13.7466 7.04226 13.6874 6.89918 13.6874 6.75C13.6874 6.60082 13.7466 6.45774 13.8521 6.35225C13.9576 6.24676 14.1007 6.1875 14.2499 6.1875H16.4999C16.649 6.1875 16.7921 6.24676 16.8976 6.35225C17.0031 6.45774 17.0624 6.60082 17.0624 6.75C17.0624 6.89918 17.0031 7.04226 16.8976 7.14775C16.7921 7.25324 16.649 7.3125 16.4999 7.3125ZM9.74985 6.1875H8.81235V5.25C8.81235 5.10082 8.75309 4.95774 8.6476 4.85225C8.54211 4.74676 8.39904 4.6875 8.24985 4.6875C8.10067 4.6875 7.95759 4.74676 7.85211 4.85225C7.74662 4.95774 7.68735 5.10082 7.68735 5.25V6.1875H6.74985C6.60067 6.1875 6.45759 6.24676 6.3521 6.35225C6.24662 6.45774 6.18735 6.60082 6.18735 6.75C6.18735 6.89918 6.24662 7.04226 6.3521 7.14775C6.45759 7.25324 6.60067 7.3125 6.74985 7.3125H7.68735V8.25C7.68735 8.39918 7.74662 8.54226 7.85211 8.64775C7.95759 8.75324 8.10067 8.8125 8.24985 8.8125C8.39904 8.8125 8.54211 8.75324 8.6476 8.64775C8.75309 8.54226 8.81235 8.39918 8.81235 8.25V7.3125H9.74985C9.89904 7.3125 10.0421 7.25324 10.1476 7.14775C10.2531 7.04226 10.3124 6.89918 10.3124 6.75C10.3124 6.60082 10.2531 6.45774 10.1476 6.35225C10.0421 6.24676 9.89904 6.1875 9.74985 6.1875ZM22.4849 15.7031C22.1911 16.1228 21.8004 16.4654 21.3461 16.702C20.8918 16.9387 20.3871 17.0623 19.8749 17.0625C19.0312 17.0606 18.2224 16.7253 17.6249 16.1297L17.6005 16.1034L13.8167 11.8125H10.183L6.40391 16.1025L6.37485 16.125C5.77868 16.7232 4.96944 17.0604 4.12485 17.0625C3.65953 17.0622 3.19992 16.96 2.7783 16.7631C2.35668 16.5662 1.98328 16.2794 1.68433 15.9229C1.38538 15.5663 1.16812 15.1486 1.04782 14.6991C0.927519 14.2496 0.907093 13.7792 0.987977 13.3209C0.987977 13.3209 0.987977 13.3153 0.987977 13.3116L2.52173 5.42625C2.7424 4.16928 3.39897 3.03028 4.37608 2.20936C5.3532 1.38844 6.58835 0.938117 7.86454 0.9375H16.1249C17.3977 0.939118 18.6298 1.38672 19.607 2.2025C20.5841 3.01828 21.2444 4.15066 21.4733 5.40281V5.42062L23.0117 13.3125V13.3228C23.0857 13.7347 23.0772 14.1572 22.9867 14.5658C22.8963 14.9743 22.7257 15.3609 22.4849 15.7031ZM16.1249 10.6875C17.2686 10.6875 18.3655 10.2331 19.1742 9.4244C19.983 8.61565 20.4374 7.51875 20.4374 6.375C20.4374 5.23125 19.983 4.13435 19.1742 3.3256C18.3655 2.51685 17.2686 2.0625 16.1249 2.0625H7.86454C6.85228 2.06327 5.87269 2.42088 5.098 3.07245C4.32332 3.72402 3.80314 4.62784 3.62891 5.625C3.62848 5.62811 3.62848 5.63127 3.62891 5.63437L2.09329 13.5216C2.01833 13.952 2.082 14.3951 2.2751 14.787C2.46821 15.1789 2.78078 15.4994 3.16775 15.7022C3.55473 15.905 3.99611 15.9797 4.42827 15.9155C4.86044 15.8513 5.26105 15.6516 5.57235 15.345L9.50985 10.8778C9.56291 10.8185 9.62794 10.7711 9.70067 10.7388C9.77339 10.7065 9.85215 10.6899 9.93173 10.6903L16.1249 10.6875ZM21.9064 13.5216L20.9886 8.80125C20.5372 9.70511 19.8432 10.4655 18.9842 10.9973C18.1252 11.5291 17.1351 11.8114 16.1249 11.8125H15.3158L18.4274 15.345C18.7387 15.6516 19.1393 15.8513 19.5714 15.9155C20.0036 15.9797 20.445 15.905 20.832 15.7022C21.2189 15.4994 21.5315 15.1789 21.7246 14.787C21.9177 14.3951 21.9814 13.952 21.9064 13.5216Z" fill="#D1CBD8"/>
</svg>
