<svg width="34" height="34" viewBox="0 0 34 34" fill="none" xmlns="http://www.w3.org/2000/svg">
<path d="M31.3499 28.9998C32.3944 27.5997 33.1111 25.9829 33.4473 24.2688C33.7835 22.5547 33.7304 20.787 33.2921 19.0961C32.8538 17.4052 32.0414 15.8343 30.9148 14.4994C29.7883 13.1644 28.3763 12.0995 26.7832 11.3831C26.4362 9.38661 25.6387 7.49548 24.4512 5.8534C23.2638 4.21132 21.7177 2.86149 19.9304 1.9065C18.1431 0.951499 16.1617 0.416451 14.1366 0.342009C12.1116 0.267566 10.0962 0.655687 8.24359 1.47688C6.39101 2.29807 4.74998 3.53073 3.44519 5.0812C2.1404 6.63167 1.20618 8.45914 0.71352 10.4248C0.220859 12.3904 0.182716 14.4425 0.601991 16.4251C1.02127 18.4076 1.88693 20.2686 3.1332 21.8664L0.816529 24.1664C0.585267 24.4008 0.428606 24.6984 0.366316 25.0218C0.304026 25.3451 0.338897 25.6796 0.466529 25.9831C0.591563 26.2875 0.803893 26.548 1.07676 26.7319C1.34963 26.9158 1.67082 27.0148 1.99986 27.0164H11.4832C12.4276 29.0075 13.9166 30.6903 15.7778 31.8701C17.639 33.0499 19.7962 33.6785 21.9999 33.6831H31.9999C32.3289 33.6815 32.6501 33.5825 32.923 33.3986C33.1958 33.2147 33.4082 32.9541 33.5332 32.6498C33.6608 32.3463 33.6957 32.0117 33.6334 31.6884C33.5711 31.3651 33.4145 31.0675 33.1832 30.8331L31.3499 28.9998ZM10.3332 22.0164C10.3355 22.5746 10.3801 23.1317 10.4665 23.6831H6.01653L6.59986 23.1164C6.75608 22.9615 6.88007 22.7772 6.96468 22.5741C7.0493 22.371 7.09286 22.1531 7.09286 21.9331C7.09286 21.7131 7.0493 21.4952 6.96468 21.2922C6.88007 21.0891 6.75608 20.9047 6.59986 20.7498C5.66579 19.826 4.92528 18.7252 4.42162 17.5118C3.91796 16.2985 3.66126 14.9968 3.66653 13.6831C3.66653 11.0309 4.7201 8.48741 6.59546 6.61204C8.47083 4.73668 11.0144 3.68311 13.6665 3.68311C15.736 3.67068 17.7573 4.30709 19.4464 5.50289C21.1355 6.69868 22.4073 8.39374 23.0832 10.3498C22.7165 10.3498 22.3665 10.3498 21.9999 10.3498C18.9057 10.3498 15.9382 11.5789 13.7503 13.7669C11.5624 15.9548 10.3332 18.9223 10.3332 22.0164ZM27.8999 30.3498L27.9832 30.4331H21.9999C20.0721 30.4297 18.2051 29.758 16.7171 28.5324C15.229 27.3069 14.2118 25.6034 13.8389 23.712C13.4659 21.8207 13.7602 19.8585 14.6717 18.1598C15.5831 16.4611 17.0553 15.131 18.8375 14.3959C20.6196 13.6609 22.6015 13.5665 24.4454 14.1288C26.2894 14.6911 27.8813 15.8753 28.9501 17.4797C30.0189 19.0841 30.4984 21.0094 30.3069 22.9276C30.1154 24.8458 29.2647 26.6384 27.8999 27.9998C27.5858 28.3075 27.4061 28.7268 27.3999 29.1664C27.4008 29.387 27.4454 29.6051 27.5313 29.8082C27.6171 30.0113 27.7424 30.1954 27.8999 30.3498Z" fill="white"/>
</svg>
