<svg width="21" height="20" viewBox="0 0 21 20" fill="none" xmlns="http://www.w3.org/2000/svg">
<path d="M19.6101 17.2001C20.2368 16.36 20.6669 15.39 20.8686 14.3615C21.0703 13.333 21.0385 12.2724 20.7755 11.2578C20.5125 10.2433 20.025 9.30078 19.3491 8.49981C18.6732 7.69884 17.826 7.05987 16.8701 6.63006C16.6619 5.43216 16.1834 4.29748 15.4709 3.31223C14.7585 2.32698 13.8308 1.51709 12.7585 0.944093C11.6861 0.371095 10.4972 0.0500661 9.28217 0.00540046C8.06713 -0.0392652 6.8579 0.193607 5.74635 0.686323C4.6348 1.17904 3.65018 1.91864 2.86731 2.84892C2.08443 3.77919 1.5239 4.87568 1.22831 6.05506C0.93271 7.23444 0.909825 8.46568 1.16139 9.65523C1.41295 10.8448 1.93235 11.9613 2.68011 12.9201L1.29011 14.3001C1.15136 14.4407 1.05736 14.6193 1.01998 14.8132C0.982611 15.0072 1.00353 15.208 1.08011 15.3901C1.15513 15.5727 1.28253 15.729 1.44625 15.8393C1.60997 15.9497 1.80269 16.0091 2.00011 16.0101H7.69011C8.25676 17.2047 9.15015 18.2144 10.2669 18.9223C11.3836 19.6302 12.6779 20.0073 14.0001 20.0101H20.0001C20.1975 20.0091 20.3903 19.9497 20.554 19.8393C20.7177 19.729 20.8451 19.5727 20.9201 19.3901C20.9967 19.208 21.0176 19.0072 20.9802 18.8132C20.9429 18.6193 20.8489 18.4407 20.7101 18.3001L19.6101 17.2001ZM7.00011 13.0101C7.00149 13.3449 7.02823 13.6792 7.08011 14.0101H4.41011L4.76011 13.6701C4.85384 13.5771 4.92824 13.4665 4.979 13.3446C5.02977 13.2228 5.05591 13.0921 5.05591 12.9601C5.05591 12.8281 5.02977 12.6973 4.979 12.5755C4.92824 12.4536 4.85384 12.343 4.76011 12.2501C4.19967 11.6958 3.75536 11.0353 3.45317 10.3073C3.15097 9.57927 2.99695 8.7983 3.00011 8.01006C3.00011 6.41876 3.63225 4.89264 4.75747 3.76742C5.88269 2.6422 7.40881 2.01006 9.00011 2.01006C10.2418 2.0026 11.4546 2.38445 12.468 3.10193C13.4815 3.81941 14.2446 4.83644 14.6501 6.01006C14.4301 6.01006 14.2201 6.01006 14.0001 6.01006C12.1436 6.01006 10.3631 6.74756 9.05037 8.06032C7.73761 9.37307 7.00011 11.1535 7.00011 13.0101ZM17.5401 18.0101L17.5901 18.0601H14.0001C12.8435 18.058 11.7233 17.655 10.8304 16.9197C9.93758 16.1843 9.32728 15.1622 9.10351 14.0274C8.87973 12.8926 9.05632 11.7153 9.60319 10.6961C10.1501 9.67686 11.0334 8.87877 12.1027 8.43776C13.172 7.99676 14.3611 7.94012 15.4674 8.27749C16.5738 8.61487 17.529 9.32539 18.1703 10.288C18.8115 11.2506 19.0992 12.4058 18.9843 13.5568C18.8694 14.7077 18.359 15.7832 17.5401 16.6001C17.3517 16.7847 17.2439 17.0363 17.2401 17.3001C17.2407 17.4324 17.2675 17.5633 17.319 17.6851C17.3705 17.807 17.4456 17.9174 17.5401 18.0101Z" fill="white"/>
</svg>
