<svg width="28" height="28" viewBox="0 0 28 28" fill="none" xmlns="http://www.w3.org/2000/svg">
<path d="M23.332 15.3767V12.8333C23.332 10.358 22.3487 7.98401 20.5984 6.23367C18.848 4.48333 16.474 3.5 13.9987 3.5C11.5233 3.5 9.14937 4.48333 7.39903 6.23367C5.64869 7.98401 4.66536 10.358 4.66536 12.8333V15.3767C3.98456 15.6174 3.39486 16.0627 2.97713 16.6518C2.55939 17.2408 2.33406 17.9446 2.33203 18.6667V21C2.33203 21.9283 2.70078 22.8185 3.35716 23.4749C4.01353 24.1313 4.90377 24.5 5.83203 24.5H9.33203C9.64145 24.5 9.93819 24.3771 10.157 24.1583C10.3758 23.9395 10.4987 23.6428 10.4987 23.3333V16.3333C10.4987 16.0239 10.3758 15.7272 10.157 15.5084C9.93819 15.2896 9.64145 15.1667 9.33203 15.1667H6.9987V12.8333C6.9987 10.9768 7.73619 9.19634 9.04895 7.88359C10.3617 6.57083 12.1422 5.83333 13.9987 5.83333C15.8552 5.83333 17.6357 6.57083 18.9484 7.88359C20.2612 9.19634 20.9987 10.9768 20.9987 12.8333V15.1667H18.6654C18.3559 15.1667 18.0592 15.2896 17.8404 15.5084C17.6216 15.7272 17.4987 16.0239 17.4987 16.3333V23.3333C17.4987 23.6428 17.6216 23.9395 17.8404 24.1583C18.0592 24.3771 18.3559 24.5 18.6654 24.5H22.1654C23.0936 24.5 23.9839 24.1313 24.6402 23.4749C25.2966 22.8185 25.6654 21.9283 25.6654 21V18.6667C25.6633 17.9446 25.438 17.2408 25.0203 16.6518C24.6025 16.0627 24.0128 15.6174 23.332 15.3767ZM8.16536 17.5V22.1667H5.83203C5.52261 22.1667 5.22587 22.0438 5.00707 21.825C4.78828 21.6062 4.66536 21.3094 4.66536 21V18.6667C4.66536 18.3572 4.78828 18.0605 5.00707 17.8417C5.22587 17.6229 5.52261 17.5 5.83203 17.5H8.16536ZM23.332 21C23.332 21.3094 23.2091 21.6062 22.9903 21.825C22.7715 22.0438 22.4748 22.1667 22.1654 22.1667H19.832V17.5H22.1654C22.4748 17.5 22.7715 17.6229 22.9903 17.8417C23.2091 18.0605 23.332 18.3572 23.332 18.6667V21Z" fill="#D1CBD8"/>
</svg>
