<svg width="32" height="32" viewBox="0 0 28 28" fill="none" xmlns="http://www.w3.org/2000/svg">
<path d="M23.3334 9.33261L16.3334 3.19594C15.6917 2.62199 14.861 2.30469 14.0001 2.30469C13.1392 2.30469 12.3085 2.62199 11.6668 3.19594L4.66678 9.33261C4.29621 9.66403 4.00049 10.0706 3.79933 10.5252C3.59816 10.9799 3.49616 11.4721 3.50011 11.9693V22.1659C3.50011 23.0942 3.86886 23.9844 4.52524 24.6408C5.18161 25.2972 6.07185 25.6659 7.00011 25.6659H21.0001C21.9284 25.6659 22.8186 25.2972 23.475 24.6408C24.1314 23.9844 24.5001 23.0942 24.5001 22.1659V11.9576C24.5024 11.4624 24.3996 10.9724 24.1985 10.5199C23.9974 10.0674 23.7025 9.66273 23.3334 9.33261ZM16.3334 23.3326H11.6668V17.4993C11.6668 17.1899 11.7897 16.8931 12.0085 16.6743C12.2273 16.4555 12.524 16.3326 12.8334 16.3326H15.1668C15.4762 16.3326 15.7729 16.4555 15.9917 16.6743C16.2105 16.8931 16.3334 17.1899 16.3334 17.4993V23.3326ZM22.1668 22.1659C22.1668 22.4754 22.0439 22.7721 21.8251 22.9909C21.6063 23.2097 21.3095 23.3326 21.0001 23.3326H18.6668V17.4993C18.6668 16.571 18.298 15.6808 17.6416 15.0244C16.9853 14.368 16.095 13.9993 15.1668 13.9993H12.8334C11.9052 13.9993 11.0149 14.368 10.3586 15.0244C9.70219 15.6808 9.33344 16.571 9.33344 17.4993V23.3326H7.00011C6.69069 23.3326 6.39394 23.2097 6.17515 22.9909C5.95636 22.7721 5.83344 22.4754 5.83344 22.1659V11.9576C5.83365 11.792 5.86914 11.6283 5.93753 11.4774C6.00592 11.3265 6.10566 11.1919 6.23011 11.0826L13.2301 4.95761C13.443 4.77057 13.7167 4.66742 14.0001 4.66742C14.2835 4.66742 14.5572 4.77057 14.7701 4.95761L21.7701 11.0826C21.8946 11.1919 21.9943 11.3265 22.0627 11.4774C22.1311 11.6283 22.1666 11.792 22.1668 11.9576V22.1659Z" fill="#D1CBD8"/>
</svg>
