<svg width="18" height="18" viewBox="0 0 16 16" fill="none" xmlns="http://www.w3.org/2000/svg">
<path d="M6.00195 4.66683C6.00995 3.21683 6.07462 2.4315 6.58662 1.9195C7.17262 1.3335 8.11529 1.3335 10.0006 1.3335H10.6673C12.5533 1.3335 13.496 1.3335 14.082 1.9195C14.6673 2.50483 14.6673 3.44816 14.6673 5.3335V10.6668C14.6673 12.5522 14.6673 13.4955 14.082 14.0808C13.4953 14.6668 12.5533 14.6668 10.6673 14.6668H10.0006C8.11529 14.6668 7.17262 14.6668 6.58662 14.0808C6.07462 13.5688 6.00995 12.7835 6.00195 11.3335" stroke="#D1CBD8" stroke-width="1.5" stroke-linecap="round"/>
<path d="M10.0007 8H1.33398M1.33398 8L3.66732 6M1.33398 8L3.66732 10" stroke="#D1CBD8" stroke-width="1.5" stroke-linecap="round" stroke-linejoin="round"/>
</svg>
