<svg width="181" height="141" viewBox="0 0 181 141" fill="none" xmlns="http://www.w3.org/2000/svg">
<path fill-rule="evenodd" clip-rule="evenodd" d="M86.1989 115.518C122.179 115.402 159.083 118.565 169.196 124.787C178.672 130.617 153 135.893 124.669 139.186C101.484 141.881 72.6349 141.464 49.8558 138.659C24.501 135.536 3.50389 130.619 11.866 125.295C21.1004 119.415 52.2888 115.628 86.1989 115.518Z" fill="#D1CBD8"/>
<g clip-path="url(#clip0_1_13029)">
<path fill-rule="evenodd" clip-rule="evenodd" d="M138.094 64.1958H43.1268C41.9873 64.1958 41.0625 65.1206 41.0625 66.2629V125.031C41.0625 126.173 41.9873 127.099 43.1268 127.099H138.094C138.365 127.098 138.634 127.045 138.885 126.941C139.136 126.837 139.363 126.684 139.555 126.492C139.747 126.3 139.899 126.072 140.003 125.821C140.106 125.571 140.159 125.302 140.159 125.031V66.2629C140.159 65.9918 140.106 65.7232 140.002 65.4725C139.899 65.2219 139.747 64.9941 139.555 64.8021C139.363 64.6102 139.135 64.4578 138.885 64.3538C138.634 64.2498 138.365 64.1961 138.094 64.1958Z" fill="url(#paint0_linear_1_13029)"/>
<path fill-rule="evenodd" clip-rule="evenodd" d="M44.1523 40.4693V125.015C44.1523 126.166 45.0771 127.099 46.2166 127.099H134.982C135.255 127.098 135.524 127.043 135.775 126.937C136.026 126.832 136.254 126.678 136.446 126.485C136.638 126.291 136.789 126.062 136.892 125.81C136.995 125.558 137.047 125.288 137.046 125.016V26.0519C137.047 25.7798 136.995 25.51 136.892 25.258C136.789 25.006 136.638 24.7767 136.446 24.5832C136.254 24.3897 136.026 24.2359 135.775 24.1303C135.524 24.0248 135.255 23.9697 134.982 23.9683L60.6708 23.9765L44.1523 40.4693Z" fill="white"/>
<path fill-rule="evenodd" clip-rule="evenodd" d="M41.0586 125.028C41.0586 126.172 41.9824 127.099 43.1229 127.099H138.08C139.22 127.099 140.145 126.172 140.145 125.028V67.3013L90.6016 97.2001L41.0586 67.3013V125.028Z" fill="url(#paint1_linear_1_13029)"/>
<path fill-rule="evenodd" clip-rule="evenodd" d="M44.1523 40.4691L60.6677 40.4794V24L44.1523 40.4691Z" fill="url(#paint2_linear_1_13029)"/>
<path opacity="0.3" fill-rule="evenodd" clip-rule="evenodd" d="M140.145 125.028V122.975L90.6016 97.2002L139.451 126.565C139.873 126.187 140.145 125.641 140.145 125.028ZM41.0586 125.028V122.975L90.6016 97.2002L41.7522 126.565C41.5346 126.372 41.3603 126.135 41.2407 125.87C41.1212 125.606 41.0591 125.318 41.0586 125.028Z" fill="black"/>
<path d="M73.9887 39.0771H63.0859V48.9229H73.9887V39.0771Z" fill="white"/>
<path d="M74.0735 49H63V39H74.0735V49ZM63.1709 48.8458H73.9028V39.1542H63.1707L63.1709 48.8458Z" fill="#292A2E"/>
<path d="M118.997 55H63.1094V55.2401H118.997V55Z" fill="#292A2E"/>
<path d="M118.997 60.752H63.1094V60.992H118.997V60.752Z" fill="#292A2E"/>
<path d="M118.997 66.5034H63.1094V66.7435H118.997V66.5034Z" fill="#292A2E"/>
<path d="M118.997 72.2559H63.1094V72.4959H118.997V72.2559Z" fill="#292A2E"/>
<path d="M118.997 78.0078H63.1094V78.2479H118.997V78.0078Z" fill="#292A2E"/>
<path d="M118.997 83.7598H63.1094V83.9998H118.997V83.7598Z" fill="#292A2E"/>
<path d="M140.145 67.3013L90.6016 97.2L140.145 122.975V67.3013Z" fill="url(#paint3_linear_1_13029)"/>
<path d="M41.0586 67.3013L41.1123 122.975L90.6016 97.2001L41.0586 67.3013Z" fill="url(#paint4_linear_1_13029)"/>
<path opacity="0.1" d="M80.2773 98.2313L137.042 64.2085L137.045 71.4048L91.6599 98.2313H80.2773Z" fill="black"/>
</g>
<path d="M24.6628 81.5945C23.992 81.2814 23.328 80.9577 22.6899 80.6329C22.607 80.5907 22.5106 80.5831 22.4221 80.6119C22.3336 80.6407 22.2602 80.7035 22.2179 80.7864C22.1757 80.8693 22.1681 80.9656 22.1969 81.0542C22.2257 81.1427 22.2884 81.2161 22.3714 81.2584C23.0165 81.587 23.6875 81.9138 24.3655 82.2308C24.4495 82.2682 24.5449 82.2711 24.6311 82.2389C24.7173 82.2066 24.7874 82.1419 24.8263 82.0585C24.8653 81.9751 24.8699 81.8798 24.8393 81.793C24.8086 81.7062 24.7451 81.635 24.6625 81.5945H24.6628Z" fill="white"/>
<path d="M34.9267 85.4966L34.8765 85.4814C34.1874 85.2703 33.4998 85.0509 32.8329 84.829C32.7446 84.7996 32.6482 84.8065 32.565 84.8482C32.4817 84.8898 32.4185 84.9629 32.3891 85.0512C32.3597 85.1395 32.3666 85.2359 32.4082 85.3192C32.4499 85.4024 32.5229 85.4657 32.6113 85.4951C33.2846 85.7188 33.9766 85.94 34.6683 86.1516L34.7232 86.1684L34.74 86.1731C34.8292 86.1962 34.9239 86.1834 35.0037 86.1373C35.0835 86.0912 35.142 86.0156 35.1665 85.9268C35.191 85.838 35.1796 85.7431 35.1347 85.6626C35.0899 85.5821 35.0152 85.5225 34.9267 85.4966Z" fill="white"/>
<path d="M19.7982 79.0635C19.1611 78.6949 18.5292 78.3124 17.9214 77.9289C17.8824 77.9028 17.8386 77.8848 17.7926 77.876C17.7465 77.8671 17.6992 77.8675 17.6533 77.8773C17.6075 77.887 17.564 77.9058 17.5255 77.9326C17.487 77.9594 17.4543 77.9936 17.4293 78.0332C17.4042 78.0729 17.3874 78.1171 17.3797 78.1634C17.3721 78.2096 17.3737 78.257 17.3846 78.3026C17.3956 78.3482 17.4155 78.3911 17.4433 78.4289C17.4711 78.4666 17.5061 78.4985 17.5464 78.5225C18.1622 78.9109 18.8016 79.2994 19.4465 79.6713C19.475 79.6876 19.5056 79.6999 19.5374 79.708C19.6195 79.7284 19.7061 79.7185 19.7815 79.68C19.8568 79.6416 19.9158 79.5773 19.9475 79.4989C19.9792 79.4205 19.9816 79.3333 19.9541 79.2533C19.9267 79.1733 19.8713 79.1059 19.7982 79.0635Z" fill="white"/>
<path d="M40.2058 87.0641C39.4915 86.8569 38.7853 86.6508 38.0871 86.4457C38.0429 86.4317 37.9963 86.4268 37.9502 86.4313C37.9041 86.4357 37.8593 86.4494 37.8186 86.4716C37.7779 86.4937 37.7421 86.5239 37.7133 86.5602C37.6845 86.5965 37.6633 86.6382 37.651 86.6829C37.6247 86.7722 37.635 86.8683 37.6795 86.9501C37.724 87.0318 37.7992 87.0926 37.8885 87.119C38.5872 87.3252 39.2946 87.5316 40.0108 87.7385L40.0234 87.7418C40.1124 87.7631 40.2061 87.7487 40.2846 87.7019C40.3631 87.6551 40.4203 87.5795 40.4439 87.4912C40.4675 87.4029 40.4557 87.3088 40.4111 87.2291C40.3664 87.1493 40.2924 87.0901 40.2047 87.0641H40.2058Z" fill="white"/>
<path d="M15.1965 76.0873C14.6009 75.6561 14.0151 75.2104 13.4526 74.7616C13.3798 74.7036 13.287 74.6768 13.1945 74.6873C13.102 74.6977 13.0174 74.7444 12.9594 74.8172C12.9014 74.89 12.8746 74.9828 12.885 75.0753C12.8954 75.1678 12.9422 75.2524 13.0149 75.3104C13.586 75.7659 14.1803 76.2184 14.7845 76.6558C14.8209 76.6821 14.8619 76.7012 14.9055 76.7122C14.9845 76.7319 15.068 76.7234 15.1415 76.6883C15.215 76.6532 15.274 76.5936 15.3084 76.5197C15.3429 76.4458 15.3505 76.3623 15.3301 76.2834C15.3097 76.2046 15.2625 76.1352 15.1965 76.0873Z" fill="white"/>
<path d="M29.7195 83.7242C29.0353 83.4652 28.3469 83.1941 27.6759 82.9175C27.6333 82.9 27.5876 82.891 27.5415 82.8911C27.4954 82.8912 27.4498 82.9004 27.4073 82.9182C27.3647 82.9359 27.3261 82.9619 27.2936 82.9945C27.2611 83.0272 27.2353 83.066 27.2178 83.1086C27.2003 83.1512 27.1913 83.1969 27.1914 83.243C27.1915 83.2891 27.2007 83.3347 27.2185 83.3773C27.2362 83.4198 27.2622 83.4584 27.2948 83.4909C27.3275 83.5235 27.3663 83.5492 27.4089 83.5667C28.0869 83.8457 28.7815 84.1197 29.4711 84.3807C29.484 84.3856 29.4971 84.3897 29.5105 84.3929C29.5973 84.4144 29.6891 84.402 29.767 84.3582C29.845 84.3143 29.9033 84.2423 29.9299 84.157C29.9566 84.0716 29.9497 83.9793 29.9106 83.8988C29.8715 83.8184 29.8031 83.7559 29.7195 83.7242Z" fill="white"/>
<path d="M10.9698 72.6221C10.4324 72.1228 9.90802 71.6077 9.4082 71.0911C9.37618 71.0579 9.33794 71.0314 9.29566 71.013C9.25339 70.9946 9.20792 70.9847 9.16183 70.9839C9.11574 70.9831 9.06994 70.9914 9.02706 71.0083C8.98417 71.0252 8.94503 71.0504 8.91187 71.0824C8.87871 71.1144 8.85218 71.1526 8.8338 71.1949C8.81542 71.2372 8.80555 71.2827 8.80474 71.3288C8.80394 71.3748 8.81221 71.4206 8.82911 71.4635C8.846 71.5064 8.87118 71.5456 8.9032 71.5787C9.41053 72.1044 9.94531 72.6286 10.492 73.1365C10.5258 73.1678 10.5654 73.1922 10.6086 73.2083C10.6518 73.2244 10.6978 73.2318 10.7438 73.2301C10.7899 73.2284 10.8352 73.2176 10.8771 73.1984C10.919 73.1792 10.9567 73.152 10.9881 73.1182C11.0194 73.0844 11.0439 73.0448 11.0599 73.0016C11.076 72.9584 11.0834 72.9124 11.0817 72.8664C11.08 72.8203 11.0692 72.775 11.05 72.7331C11.0308 72.6912 11.0036 72.6535 10.9698 72.6221Z" fill="white"/>
<path d="M10.9478 29.5639C11.4709 29.0687 12.0189 28.5764 12.576 28.1009C12.6111 28.071 12.6399 28.0345 12.6608 27.9934C12.6818 27.9523 12.6944 27.9076 12.698 27.8616C12.7017 27.8156 12.6962 27.7694 12.682 27.7256C12.6678 27.6817 12.645 27.6411 12.6151 27.6061C12.5852 27.571 12.5486 27.5422 12.5076 27.5212C12.4665 27.5003 12.4217 27.4876 12.3757 27.484C12.3298 27.4804 12.2836 27.4858 12.2397 27.5001C12.1959 27.5143 12.1553 27.537 12.1202 27.5669C11.5541 28.0502 10.9973 28.551 10.4651 29.0542C10.4316 29.0859 10.4047 29.1239 10.3859 29.166C10.3672 29.2081 10.3568 29.2535 10.3556 29.2995C10.3543 29.3456 10.3622 29.3915 10.3787 29.4345C10.3951 29.4776 10.4199 29.517 10.4516 29.5504C10.4833 29.5839 10.5213 29.6108 10.5634 29.6296C10.6055 29.6484 10.6509 29.6587 10.6969 29.6599C10.743 29.6612 10.7889 29.6533 10.8319 29.6369C10.875 29.6204 10.9144 29.5956 10.9478 29.5639Z" fill="white"/>
<path d="M1.58026 43.3229C1.58855 43.3257 1.59684 43.3281 1.60616 43.3301C1.69209 43.3516 1.78295 43.3397 1.86049 43.2969C1.93803 43.2541 1.99649 43.1835 2.02414 43.0994C2.24867 42.4186 2.50506 41.7315 2.78656 41.0576C2.82249 40.9718 2.82283 40.8752 2.78752 40.7891C2.75222 40.703 2.68415 40.6344 2.59829 40.5985C2.51244 40.5626 2.41582 40.5622 2.32971 40.5975C2.24361 40.6328 2.17505 40.7009 2.13913 40.7868C1.85063 41.4774 1.58777 42.1816 1.35755 42.8798C1.32839 42.9681 1.33546 43.0643 1.37722 43.1474C1.41898 43.2305 1.49201 43.2936 1.58026 43.3229Z" fill="white"/>
<path d="M0.844369 48.4071C0.923874 47.6936 1.03575 46.9706 1.1769 46.2576C1.18586 46.2124 1.18582 46.1659 1.1768 46.1207C1.16778 46.0755 1.14994 46.0325 1.1243 45.9942C1.09867 45.9559 1.06574 45.923 1.02739 45.8974C0.989049 45.8718 0.946041 45.854 0.900826 45.8451C0.855611 45.8361 0.809073 45.8361 0.763871 45.8452C0.718668 45.8542 0.675687 45.872 0.637379 45.8977C0.59907 45.9233 0.566185 45.9562 0.540603 45.9946C0.515021 46.0329 0.497241 46.0759 0.48828 46.1211C0.343254 46.854 0.229305 47.5973 0.146692 48.3299C0.137291 48.4143 0.158764 48.4992 0.207137 48.5689C0.255509 48.6387 0.327508 48.6886 0.409812 48.7093C0.425202 48.7133 0.440873 48.7161 0.456686 48.7176C0.502543 48.7228 0.548966 48.7188 0.59329 48.706C0.637615 48.6931 0.678969 48.6717 0.714985 48.6428C0.751001 48.614 0.780971 48.5783 0.803174 48.5379C0.825376 48.4974 0.839375 48.453 0.844369 48.4071Z" fill="white"/>
<path d="M5.22852 35.7579C5.15038 35.7074 5.05543 35.69 4.96445 35.7094C4.87348 35.7288 4.79392 35.7835 4.7432 35.8615C4.33635 36.49 3.94996 37.1333 3.59465 37.7743C3.54961 37.8558 3.53874 37.9518 3.56442 38.0413C3.59011 38.1308 3.65025 38.2064 3.73165 38.2516C3.75855 38.2663 3.78717 38.2776 3.81685 38.2852C3.89188 38.3039 3.97095 38.2973 4.04184 38.2664C4.11272 38.2356 4.17145 38.1822 4.20894 38.1146C4.55622 37.4876 4.93407 36.858 5.33211 36.243C5.38258 36.1649 5.40001 36.07 5.38059 35.979C5.36117 35.8881 5.30648 35.8086 5.22852 35.7579Z" fill="white"/>
<path d="M0.702079 51.6668C0.698552 51.5749 0.659146 51.4881 0.592326 51.425C0.525506 51.3619 0.436601 51.3275 0.344693 51.3292C0.252785 51.3309 0.165205 51.3685 0.100759 51.4341C0.0363122 51.4996 0.000137464 51.5878 0 51.6797C0.0137256 52.4214 0.0605988 53.1725 0.138809 53.9124C0.143655 53.9582 0.15748 54.0026 0.179495 54.0431C0.20151 54.0836 0.231283 54.1193 0.267115 54.1483C0.302946 54.1773 0.344134 54.1989 0.388327 54.212C0.43252 54.225 0.478855 54.2293 0.524682 54.2244C0.570509 54.2196 0.61493 54.2058 0.655414 54.1837C0.695898 54.1617 0.731652 54.132 0.76063 54.0961C0.789608 54.0603 0.811243 54.0191 0.824303 53.9749C0.837363 53.9307 0.841589 53.8844 0.836743 53.8386C0.760863 53.1189 0.715287 52.3883 0.702079 51.6668Z" fill="white"/>
<path d="M6.75023 33.6403C6.78914 33.6715 6.83438 33.694 6.88282 33.7061C6.94829 33.7224 7.01708 33.7195 7.08097 33.6978C7.14486 33.6761 7.20113 33.6364 7.24306 33.5836C7.68875 33.0224 8.16294 32.4599 8.65291 31.9121C8.71206 31.8423 8.74162 31.7522 8.73529 31.6609C8.72897 31.5696 8.68725 31.4844 8.61903 31.4234C8.55081 31.3624 8.46148 31.3304 8.37005 31.3343C8.27862 31.3382 8.19232 31.3776 8.12952 31.4442C7.63048 32.0023 7.14724 32.5751 6.69326 33.1474C6.66459 33.1835 6.64331 33.2249 6.63066 33.2692C6.618 33.3135 6.61421 33.3599 6.61951 33.4057C6.6248 33.4515 6.63907 33.4957 6.6615 33.536C6.68393 33.5763 6.71408 33.6117 6.75023 33.6403Z" fill="white"/>
<path d="M3.18115 62.1852C3.14196 62.1008 3.07084 62.0353 2.98341 62.0033C2.89599 61.9713 2.79944 61.9754 2.71499 62.0145C2.63054 62.0537 2.56512 62.1249 2.53311 62.2123C2.50111 62.2997 2.50514 62.3962 2.54433 62.4807C2.85354 63.146 3.19539 63.8144 3.56054 64.4681C3.60719 64.547 3.68288 64.6046 3.77143 64.6285C3.85997 64.6524 3.95435 64.6407 4.03439 64.5959C4.11443 64.5511 4.17377 64.4768 4.19972 64.3888C4.22567 64.3009 4.21618 64.2062 4.17328 64.1252C3.81667 63.4873 3.48415 62.8352 3.18115 62.1852Z" fill="white"/>
<path d="M17.0343 24.3111C16.9824 24.2338 16.902 24.1803 16.8106 24.1624C16.7193 24.1444 16.6245 24.1634 16.5472 24.2153C15.928 24.6297 15.3163 25.0606 14.7287 25.4936C14.6916 25.5209 14.6602 25.5553 14.6364 25.5948C14.6126 25.6342 14.5968 25.678 14.5899 25.7236C14.583 25.7692 14.5851 25.8156 14.5962 25.8604C14.6073 25.9051 14.627 25.9472 14.6544 25.9843C14.6817 26.0215 14.7161 26.0528 14.7556 26.0766C14.795 26.1004 14.8388 26.1163 14.8844 26.1232C14.9299 26.1301 14.9764 26.1279 15.0212 26.1168C15.0659 26.1058 15.108 26.086 15.1451 26.0587C15.7245 25.6319 16.3279 25.2077 16.9383 24.798C17.0156 24.7462 17.0691 24.6658 17.0871 24.5745C17.1052 24.4831 17.0862 24.3884 17.0343 24.3111Z" fill="white"/>
<path d="M7.22378 68.6347C6.76436 68.0649 6.32178 67.4786 5.90871 66.8923C5.88267 66.8534 5.84911 66.82 5.80999 66.7942C5.77088 66.7685 5.727 66.7508 5.68094 66.7422C5.63489 66.7337 5.58759 66.7344 5.54182 66.7444C5.49606 66.7544 5.45276 66.7735 5.41447 66.8005C5.37619 66.8275 5.34368 66.8618 5.31888 66.9016C5.29408 66.9413 5.27748 66.9856 5.27006 67.0319C5.26264 67.0781 5.26455 67.1254 5.27567 67.1709C5.28679 67.2164 5.3069 67.2592 5.33482 67.2968C5.75643 67.8953 6.20808 68.4938 6.67761 69.0757C6.70599 69.1131 6.74159 69.1444 6.78229 69.1678C6.82299 69.1912 6.86797 69.2062 6.91457 69.2118C6.96116 69.2175 7.00842 69.2138 7.05356 69.2009C7.09869 69.188 7.14078 69.1662 7.17733 69.1367C7.21387 69.1073 7.24414 69.0708 7.26633 69.0294C7.28852 68.9881 7.30218 68.9427 7.30652 68.8959C7.31085 68.8492 7.30576 68.802 7.29155 68.7573C7.27734 68.7126 7.25429 68.6711 7.22378 68.6354V68.6347Z" fill="white"/>
<path d="M1.38778 57.0529C1.36621 56.9623 1.30955 56.884 1.23027 56.8353C1.15098 56.7865 1.05556 56.7712 0.965003 56.7928C0.874443 56.8143 0.79616 56.871 0.747374 56.9503C0.698589 57.0295 0.683296 57.125 0.704863 57.2155C0.876045 57.9344 1.08038 58.6578 1.31216 59.365C1.34114 59.4535 1.40408 59.5268 1.48713 59.5689C1.57018 59.6109 1.66654 59.6183 1.75501 59.5893C1.84347 59.5603 1.9168 59.4974 1.95885 59.4143C2.00091 59.3313 2.00826 59.2349 1.97928 59.1464C1.75345 58.4578 1.55456 57.7529 1.38778 57.0529Z" fill="white"/>
<path d="M21.7794 21.508C21.7356 21.4259 21.6609 21.3646 21.5718 21.3375C21.4828 21.3104 21.3866 21.3197 21.3044 21.3635C20.6495 21.7129 19.9969 22.0773 19.3652 22.4463C19.3255 22.4696 19.2906 22.5004 19.2628 22.5372C19.2349 22.5739 19.2146 22.6157 19.2029 22.6603C19.1912 22.7049 19.1884 22.7513 19.1947 22.797C19.2009 22.8427 19.2161 22.8867 19.2394 22.9264C19.2627 22.9662 19.2935 23.0011 19.3302 23.0289C19.367 23.0568 19.4088 23.0771 19.4534 23.0888C19.498 23.1005 19.5444 23.1033 19.5901 23.097C19.6358 23.0908 19.6797 23.0756 19.7195 23.0523C20.3434 22.6879 20.9885 22.3272 21.6359 21.983C21.7179 21.939 21.779 21.8642 21.8059 21.7752C21.8328 21.6862 21.8233 21.5901 21.7794 21.508Z" fill="white"/>
<path d="M25.3338 19.4028C24.9916 19.555 24.6525 19.7092 24.3166 19.8653C24.2747 19.8847 24.2372 19.9121 24.206 19.9461C24.1747 19.98 24.1505 20.0197 24.1347 20.063C24.1188 20.1063 24.1117 20.1523 24.1136 20.1984C24.1155 20.2444 24.1265 20.2896 24.1459 20.3315C24.1653 20.3733 24.1927 20.4108 24.2267 20.4421C24.2606 20.4733 24.3003 20.4975 24.3436 20.5133C24.3869 20.5292 24.4329 20.5363 24.4789 20.5344C24.525 20.5325 24.5702 20.5215 24.612 20.5021C24.9449 20.3467 25.2806 20.1941 25.6192 20.0443C25.701 20.0044 25.7641 19.9343 25.7952 19.8489C25.8264 19.7634 25.8231 19.6692 25.7862 19.5861C25.7493 19.503 25.6816 19.4374 25.5973 19.4032C25.513 19.369 25.4187 19.3689 25.3343 19.4028H25.3338Z" fill="white"/>
<path d="M23.9766 10.3447L24.1467 21.665L65.8053 0L23.9766 10.3447Z" fill="#0CBC8B"/>
<path opacity="0.2" d="M23.9766 10.3447L24.1467 21.665L65.8053 0L23.9766 10.3447Z" fill="#0A0A0A"/>
<path d="M26.1493 13.6882L24.1562 21.6649L56.029 4.46484L26.1493 13.6882Z" fill="#0CBC8B"/>
<path opacity="0.1" d="M26.1493 13.6882L24.1562 21.6649L56.029 4.46484L26.1493 13.6882Z" fill="#0A0A0A"/>
<path d="M20.0938 4.22465L65.8043 0L33.7184 27.4466L26.1387 13.6883L65.8043 0L23.9755 10.3447L20.0938 4.22465Z" fill="#0CBC8B"/>
<path d="M143.948 117.164C143.521 117.455 143.277 117.607 143.275 117.609C143.246 117.627 143.221 117.65 143.201 117.678C143.182 117.705 143.168 117.736 143.16 117.769C143.145 117.836 143.157 117.906 143.193 117.964C143.229 118.022 143.287 118.063 143.354 118.079C143.42 118.094 143.491 118.082 143.549 118.046C143.559 118.04 143.801 117.888 144.238 117.591C144.267 117.572 144.291 117.548 144.31 117.52C144.329 117.491 144.343 117.46 144.349 117.426C144.356 117.393 144.356 117.358 144.349 117.325C144.342 117.291 144.329 117.259 144.31 117.231C144.29 117.203 144.266 117.179 144.237 117.16C144.209 117.141 144.177 117.128 144.143 117.122C144.109 117.116 144.075 117.117 144.042 117.124C144.008 117.131 143.977 117.145 143.948 117.164Z" fill="white"/>
<path d="M165.562 69.2925C165.731 69.8015 165.892 70.3193 166.037 70.8318C166.055 70.8925 166.093 70.9449 166.147 70.9788C166.2 71.0128 166.264 71.0261 166.326 71.0161C166.336 71.0145 166.346 71.0123 166.356 71.0094C166.389 71.0001 166.419 70.9845 166.446 70.9635C166.472 70.9425 166.494 70.9164 166.511 70.8868C166.527 70.8572 166.538 70.8246 166.542 70.791C166.546 70.7573 166.543 70.7232 166.534 70.6906C166.386 70.1707 166.223 69.6454 166.052 69.1288C166.028 69.0668 165.981 69.0164 165.921 68.9881C165.861 68.9597 165.792 68.9556 165.729 68.9766C165.666 68.9977 165.614 69.0422 165.583 69.1009C165.552 69.1596 165.544 69.2281 165.563 69.292L165.562 69.2925Z" fill="white"/>
<path d="M164.728 67.025C164.75 67.0791 164.789 67.1242 164.84 67.1529C164.891 67.1816 164.95 67.1922 165.008 67.183C165.027 67.18 165.045 67.1748 165.063 67.1675C165.095 67.1548 165.123 67.136 165.148 67.1122C165.172 67.0885 165.191 67.0602 165.204 67.029C165.217 66.9977 165.224 66.9642 165.225 66.9303C165.225 66.8964 165.218 66.8628 165.206 66.8314C165.004 66.3347 164.788 65.8297 164.562 65.3307C164.534 65.2683 164.482 65.2197 164.418 65.1956C164.354 65.1714 164.283 65.1737 164.221 65.2019C164.158 65.2301 164.11 65.2819 164.086 65.3459C164.061 65.4099 164.064 65.4809 164.092 65.5433C164.316 66.0356 164.529 66.5339 164.728 67.025Z" fill="white"/>
<path d="M161.273 59.9919C161.315 59.9851 161.355 59.9679 161.389 59.942C161.423 59.916 161.45 59.882 161.467 59.843C161.485 59.804 161.492 59.7613 161.489 59.7187C161.486 59.676 161.472 59.6348 161.45 59.5988C161.161 59.1436 160.859 58.685 160.554 58.2357C160.515 58.18 160.456 58.1419 160.389 58.1296C160.323 58.1172 160.254 58.1317 160.198 58.1698C160.142 58.2079 160.103 58.2666 160.09 58.3331C160.076 58.3997 160.09 58.4688 160.127 58.5254C160.429 58.9704 160.727 59.4248 161.014 59.8755C161.041 59.9181 161.08 59.9519 161.126 59.9726C161.172 59.9933 161.223 60 161.273 59.9919Z" fill="white"/>
<path d="M165.015 92.7567C164.983 92.7437 164.95 92.737 164.916 92.7371C164.882 92.7371 164.848 92.7438 164.817 92.7569C164.786 92.7699 164.757 92.789 164.733 92.8131C164.71 92.8371 164.691 92.8657 164.678 92.8971C164.475 93.391 164.258 93.889 164.035 94.3759C164.006 94.4382 164.003 94.5092 164.027 94.5733C164.051 94.6375 164.099 94.6895 164.162 94.7181C164.224 94.7466 164.295 94.7492 164.359 94.7254C164.423 94.7016 164.475 94.6533 164.504 94.591C164.73 94.0981 164.949 93.5941 165.155 93.0934C165.168 93.0621 165.174 93.0285 165.174 92.9947C165.174 92.9608 165.168 92.9273 165.155 92.896C165.142 92.8647 165.122 92.8363 165.098 92.8124C165.074 92.7885 165.046 92.7696 165.015 92.7567Z" fill="white"/>
<path d="M160.918 100.021C160.627 100.468 160.325 100.92 160.017 101.362C159.978 101.418 159.963 101.488 159.975 101.555C159.987 101.623 160.026 101.682 160.082 101.721C160.138 101.761 160.208 101.776 160.275 101.764C160.343 101.751 160.403 101.713 160.442 101.657C160.752 101.21 161.058 100.754 161.351 100.302C161.369 100.273 161.382 100.241 161.388 100.208C161.394 100.175 161.394 100.141 161.387 100.107C161.38 100.074 161.366 100.043 161.347 100.015C161.328 99.987 161.303 99.9632 161.275 99.9447C161.246 99.9263 161.214 99.9137 161.181 99.9075C161.148 99.9014 161.114 99.9018 161.08 99.9089C161.047 99.916 161.016 99.9295 160.988 99.9487C160.96 99.968 160.936 99.9925 160.918 100.021L160.918 100.021Z" fill="white"/>
<path d="M158.725 56.5499C158.745 56.5781 158.77 56.602 158.799 56.6202C158.829 56.6384 158.861 56.6506 158.895 56.656C158.929 56.6614 158.964 56.66 158.997 56.6518C159.031 56.6436 159.062 56.6289 159.09 56.6083C159.118 56.5878 159.141 56.5619 159.158 56.5323C159.176 56.5027 159.187 56.4698 159.192 56.4357C159.196 56.4016 159.194 56.3669 159.185 56.3336C159.176 56.3004 159.161 56.2693 159.139 56.2422C158.819 55.8111 158.486 55.3755 158.15 54.9466C158.108 54.8931 158.046 54.8587 157.978 54.8507C157.911 54.8427 157.842 54.8619 157.789 54.904C157.735 54.9461 157.7 55.0077 157.692 55.0754C157.684 55.1431 157.702 55.2114 157.744 55.2652C158.077 55.6899 158.407 56.1221 158.725 56.5499Z" fill="white"/>
<path d="M152.143 49.445C152.115 49.4266 152.083 49.414 152.05 49.4078C152.016 49.4017 151.982 49.4022 151.949 49.4093C151.916 49.4163 151.884 49.4299 151.856 49.4491C151.829 49.4683 151.805 49.4929 151.786 49.5213C151.768 49.5498 151.755 49.5816 151.749 49.6149C151.743 49.6482 151.743 49.6824 151.75 49.7156C151.758 49.7487 151.771 49.7801 151.79 49.808C151.81 49.8359 151.834 49.8598 151.863 49.8782C152.315 50.1713 152.758 50.4788 153.18 50.7925C153.207 50.8135 153.238 50.829 153.271 50.8379C153.305 50.8468 153.339 50.849 153.373 50.8443C153.407 50.8397 153.44 50.8283 153.47 50.8108C153.499 50.7933 153.525 50.7701 153.545 50.7426C153.566 50.715 153.581 50.6836 153.589 50.6503C153.597 50.6169 153.598 50.5823 153.593 50.5483C153.588 50.5144 153.576 50.4819 153.558 50.4527C153.539 50.4236 153.516 50.3983 153.488 50.3784C153.057 50.0581 152.605 49.7442 152.143 49.445Z" fill="white"/>
<path d="M163.316 96.4351C163.256 96.4032 163.185 96.3967 163.12 96.4169C163.054 96.4371 163 96.4824 162.968 96.5428C162.719 97.012 162.456 97.4866 162.186 97.9543C162.154 98.0134 162.146 98.0827 162.164 98.1474C162.182 98.2122 162.225 98.2672 162.283 98.3008C162.342 98.3345 162.411 98.3441 162.476 98.3275C162.541 98.311 162.597 98.2697 162.633 98.2124C162.906 97.7391 163.172 97.2589 163.423 96.7841C163.439 96.7541 163.449 96.7213 163.452 96.6876C163.456 96.6538 163.452 96.6198 163.442 96.5874C163.432 96.5549 163.416 96.5248 163.394 96.4987C163.373 96.4725 163.346 96.4509 163.316 96.4351Z" fill="white"/>
<path d="M155.38 51.936C155.329 51.8898 155.263 51.8656 155.194 51.8687C155.126 51.8718 155.062 51.9019 155.015 51.9524C154.969 52.0029 154.945 52.0697 154.948 52.138C154.951 52.2064 154.981 52.2707 155.032 52.3169C155.426 52.6774 155.812 53.0551 156.177 53.4394C156.225 53.4869 156.289 53.5139 156.357 53.5147C156.424 53.5155 156.489 53.49 156.538 53.4436C156.586 53.3972 156.615 53.3337 156.618 53.2664C156.62 53.1992 156.596 53.1336 156.551 53.0836C156.178 52.6907 155.783 52.3045 155.38 51.936Z" fill="white"/>
<path d="M167.439 76.8788C167.406 76.8817 167.373 76.8912 167.343 76.9068C167.313 76.9224 167.286 76.9438 167.264 76.9698C167.242 76.9957 167.226 77.0256 167.216 77.0579C167.205 77.0902 167.202 77.1242 167.205 77.158C167.25 77.6915 167.284 78.2316 167.302 78.7633C167.305 78.8317 167.334 78.8963 167.385 78.943C167.435 78.9896 167.501 79.0145 167.57 79.0121C167.58 79.0116 167.591 79.0104 167.602 79.0087C167.664 78.9987 167.72 78.9664 167.76 78.9178C167.8 78.8693 167.821 78.8078 167.818 78.7449C167.799 78.2046 167.765 77.6557 167.719 77.1137C167.716 77.0799 167.706 77.047 167.691 77.017C167.675 76.9869 167.654 76.9602 167.628 76.9384C167.602 76.9166 167.572 76.9001 167.539 76.8899C167.507 76.8796 167.473 76.8759 167.439 76.8788Z" fill="white"/>
<path d="M167.125 73.0704C167.119 73.0369 167.106 73.0049 167.087 72.9766C167.068 72.9482 167.043 72.924 167.015 72.9054C166.986 72.8868 166.954 72.8742 166.921 72.8683C166.887 72.8624 166.853 72.8635 166.819 72.8713C166.752 72.8854 166.694 72.9256 166.657 72.9829C166.619 73.0403 166.606 73.1101 166.62 73.177C166.731 73.7024 166.83 74.2351 166.915 74.7601C166.92 74.794 166.931 74.8266 166.949 74.856C166.967 74.8853 166.99 74.9109 167.017 74.9312C167.045 74.9515 167.076 74.9661 167.11 74.9742C167.143 74.9822 167.178 74.9835 167.211 74.9781C167.245 74.9726 167.278 74.9605 167.307 74.9424C167.336 74.9243 167.361 74.9006 167.381 74.8727C167.401 74.8447 167.415 74.8131 167.422 74.7797C167.43 74.7463 167.43 74.7117 167.424 74.678C167.338 74.1448 167.238 73.6039 167.125 73.0704Z" fill="white"/>
<path d="M167.577 80.9254C167.544 80.9239 167.51 80.9292 167.478 80.9408C167.446 80.9525 167.417 80.9703 167.392 80.9933C167.367 81.0163 167.347 81.044 167.333 81.0748C167.319 81.1056 167.311 81.1389 167.309 81.1728C167.288 81.7049 167.253 82.245 167.206 82.7781C167.202 82.8119 167.206 82.8459 167.216 82.8782C167.226 82.9106 167.243 82.9406 167.264 82.9666C167.286 82.9926 167.313 83.0141 167.343 83.0298C167.373 83.0455 167.406 83.0552 167.439 83.0582C167.473 83.0613 167.507 83.0576 167.54 83.0475C167.572 83.0374 167.602 83.021 167.628 82.9993C167.654 82.9775 167.675 82.9509 167.691 82.9209C167.707 82.8908 167.717 82.858 167.72 82.8243C167.768 82.2826 167.804 81.7339 167.825 81.1932C167.828 81.1248 167.803 81.0582 167.757 81.008C167.71 80.9577 167.646 80.928 167.577 80.9254Z" fill="white"/>
<path d="M163.302 63.5033C163.343 63.4967 163.381 63.4806 163.414 63.4564C163.447 63.4322 163.473 63.4005 163.492 63.364C163.51 63.3275 163.519 63.2872 163.519 63.2464C163.519 63.2056 163.509 63.1654 163.49 63.1291C163.242 62.6537 162.98 62.1715 162.71 61.6959C162.675 61.6376 162.619 61.595 162.554 61.5774C162.489 61.5599 162.419 61.5688 162.36 61.6021C162.301 61.6355 162.258 61.6907 162.239 61.7558C162.22 61.8209 162.228 61.8907 162.261 61.9502C162.528 62.4206 162.787 62.8972 163.033 63.3671C163.058 63.4152 163.097 63.4543 163.145 63.4787C163.194 63.5032 163.249 63.5118 163.302 63.5033Z" fill="white"/>
<path d="M166.321 88.9212C166.289 88.9118 166.255 88.9089 166.221 88.9127C166.187 88.9164 166.155 88.9268 166.125 88.9432C166.095 88.9595 166.069 88.9816 166.048 89.0081C166.027 89.0345 166.011 89.0649 166.002 89.0975C165.854 89.6091 165.692 90.1264 165.521 90.6346C165.51 90.6667 165.505 90.7006 165.508 90.7345C165.51 90.7683 165.519 90.8013 165.534 90.8317C165.549 90.8621 165.57 90.8892 165.595 90.9115C165.621 90.9338 165.65 90.9509 165.682 90.9617C165.715 90.9725 165.749 90.977 165.782 90.9747C165.816 90.9724 165.849 90.9635 165.88 90.9485C165.91 90.9335 165.937 90.9126 165.959 90.8871C165.982 90.8616 165.999 90.8319 166.01 90.7998C166.184 90.284 166.348 89.7597 166.498 89.2405C166.508 89.2079 166.51 89.1738 166.507 89.1401C166.503 89.1065 166.492 89.0739 166.476 89.0442C166.46 89.0146 166.437 88.9884 166.411 88.9673C166.384 88.9462 166.354 88.9306 166.321 88.9212Z" fill="white"/>
<path d="M167.188 84.9607C167.154 84.9552 167.12 84.9563 167.087 84.964C167.054 84.9717 167.023 84.9858 166.995 85.0056C166.968 85.0254 166.944 85.0504 166.927 85.0792C166.909 85.108 166.897 85.1401 166.891 85.1736C166.805 85.6973 166.704 86.2293 166.591 86.7547C166.583 86.7881 166.582 86.8227 166.588 86.8565C166.594 86.8903 166.606 86.9226 166.625 86.9515C166.643 86.9804 166.667 87.0054 166.695 87.025C166.723 87.0446 166.755 87.0585 166.788 87.0657C166.822 87.0729 166.856 87.0733 166.89 87.067C166.924 87.0607 166.956 87.0478 166.984 87.0289C167.013 87.0101 167.038 86.9857 167.057 86.9573C167.076 86.9288 167.089 86.8969 167.096 86.8633C167.21 86.3295 167.313 85.7892 167.4 85.2574C167.412 85.1898 167.395 85.1206 167.356 85.065C167.316 85.0094 167.255 84.9719 167.188 84.9607Z" fill="white"/>
<path d="M147.202 114.768C146.775 115.105 146.343 115.437 145.917 115.755C145.89 115.776 145.867 115.801 145.85 115.83C145.833 115.859 145.821 115.892 145.816 115.925C145.811 115.959 145.813 115.993 145.822 116.026C145.83 116.058 145.845 116.089 145.865 116.116C145.885 116.144 145.911 116.166 145.94 116.184C145.969 116.201 146.001 116.212 146.035 116.217C146.069 116.222 146.103 116.22 146.136 116.212C146.168 116.203 146.199 116.189 146.226 116.168C146.656 115.847 147.091 115.512 147.521 115.174C147.548 115.153 147.57 115.127 147.587 115.097C147.603 115.067 147.614 115.035 147.618 115.001C147.622 114.968 147.619 114.934 147.61 114.901C147.601 114.868 147.585 114.838 147.564 114.811C147.543 114.785 147.517 114.762 147.488 114.746C147.458 114.729 147.425 114.719 147.392 114.715C147.358 114.711 147.324 114.713 147.291 114.723C147.259 114.732 147.228 114.747 147.202 114.768Z" fill="white"/>
<path d="M138.409 44.9753C138.47 44.9655 138.524 44.9347 138.564 44.8883C138.604 44.8419 138.626 44.783 138.626 44.7219C138.627 44.6608 138.605 44.6016 138.566 44.5548C138.527 44.5079 138.472 44.4765 138.412 44.4661C137.885 44.3754 137.343 44.2903 136.801 44.2127C136.733 44.2031 136.665 44.2207 136.61 44.2618C136.555 44.3029 136.519 44.3641 136.509 44.4319C136.499 44.4997 136.517 44.5685 136.558 44.6233C136.599 44.6781 136.661 44.7143 136.728 44.7239C137.265 44.8004 137.803 44.8854 138.325 44.9747C138.353 44.9795 138.381 44.9797 138.409 44.9753Z" fill="white"/>
<path d="M150.309 112.168C149.909 112.524 149.497 112.881 149.086 113.23C149.06 113.252 149.039 113.279 149.023 113.309C149.008 113.339 148.998 113.372 148.996 113.406C148.993 113.44 148.997 113.474 149.007 113.506C149.017 113.538 149.034 113.568 149.056 113.594C149.078 113.62 149.105 113.641 149.135 113.657C149.165 113.672 149.198 113.681 149.232 113.684C149.265 113.687 149.299 113.683 149.332 113.673C149.364 113.662 149.394 113.646 149.42 113.624C149.834 113.272 150.249 112.913 150.652 112.555C150.703 112.509 150.734 112.445 150.738 112.377C150.742 112.309 150.719 112.242 150.674 112.19C150.628 112.139 150.564 112.108 150.496 112.104C150.428 112.1 150.36 112.123 150.309 112.169L150.309 112.168Z" fill="white"/>
<path d="M156.014 106.448C155.66 106.85 155.295 107.254 154.929 107.648C154.885 107.699 154.863 107.764 154.866 107.831C154.87 107.898 154.9 107.961 154.949 108.006C154.998 108.052 155.062 108.076 155.129 108.075C155.196 108.074 155.26 108.047 155.307 107.999C155.675 107.602 156.044 107.195 156.401 106.789C156.446 106.738 156.469 106.671 156.464 106.602C156.46 106.534 156.429 106.47 156.377 106.425C156.326 106.38 156.259 106.357 156.191 106.361C156.122 106.366 156.059 106.397 156.013 106.448L156.014 106.448Z" fill="white"/>
<path d="M158.585 103.324C158.262 103.747 157.925 104.175 157.585 104.594C157.542 104.647 157.522 104.716 157.529 104.784C157.536 104.852 157.57 104.914 157.623 104.958C157.676 105.001 157.744 105.021 157.812 105.014C157.88 105.007 157.943 104.973 157.986 104.92C158.329 104.496 158.669 104.065 158.995 103.638C159.037 103.583 159.055 103.515 159.046 103.447C159.037 103.379 159.001 103.318 158.947 103.276C158.892 103.234 158.824 103.216 158.756 103.225C158.688 103.235 158.626 103.27 158.585 103.325L158.585 103.324Z" fill="white"/>
<path d="M149.944 48.688C149.998 48.6794 150.047 48.6543 150.086 48.6161C150.124 48.578 150.149 48.5287 150.158 48.4754C150.167 48.422 150.159 48.3672 150.135 48.3187C150.111 48.2702 150.072 48.2306 150.024 48.2052C149.551 47.9551 149.058 47.7115 148.558 47.481C148.496 47.4545 148.426 47.4532 148.364 47.4773C148.301 47.5015 148.25 47.5491 148.222 47.6102C148.194 47.6713 148.19 47.741 148.213 47.8044C148.235 47.8678 148.281 47.92 148.342 47.9498C148.833 48.1764 149.318 48.4158 149.783 48.6613C149.833 48.6877 149.889 48.6971 149.944 48.688Z" fill="white"/>
<path d="M153.252 109.393C152.876 109.769 152.487 110.149 152.094 110.523C152.046 110.571 152.019 110.636 152.019 110.703C152.018 110.77 152.043 110.835 152.09 110.884C152.136 110.933 152.2 110.961 152.267 110.964C152.335 110.966 152.4 110.942 152.45 110.897C152.846 110.521 153.238 110.137 153.617 109.758C153.642 109.734 153.662 109.705 153.676 109.674C153.689 109.642 153.697 109.608 153.697 109.574C153.697 109.539 153.691 109.505 153.678 109.473C153.665 109.441 153.646 109.412 153.621 109.388C153.597 109.364 153.568 109.344 153.536 109.331C153.504 109.318 153.47 109.312 153.435 109.312C153.401 109.313 153.367 109.32 153.335 109.334C153.304 109.348 153.275 109.368 153.252 109.393Z" fill="white"/>
<path d="M146.244 47.0392C146.3 47.0304 146.352 47.0031 146.392 46.9615C146.431 46.9199 146.455 46.8665 146.461 46.8096C146.467 46.7527 146.453 46.6955 146.423 46.647C146.392 46.5985 146.347 46.5615 146.293 46.5418C145.793 46.355 145.274 46.1741 144.75 46.004C144.685 45.9829 144.614 45.9885 144.553 46.0197C144.493 46.0508 144.446 46.1048 144.425 46.1699C144.404 46.235 144.41 46.3059 144.441 46.3668C144.472 46.4278 144.526 46.4739 144.591 46.495C145.108 46.6626 145.62 46.8409 146.112 47.0247C146.154 47.0409 146.199 47.0459 146.244 47.0392Z" fill="white"/>
<path d="M142.38 45.822C142.438 45.8125 142.492 45.7832 142.531 45.7391C142.57 45.6949 142.593 45.6386 142.596 45.5794C142.599 45.5203 142.582 45.4619 142.546 45.4142C142.511 45.3665 142.461 45.3323 142.404 45.3173C141.888 45.1833 141.354 45.055 140.817 44.9359C140.783 44.9268 140.748 44.9246 140.713 44.9294C140.679 44.9343 140.645 44.9461 140.616 44.9642C140.586 44.9822 140.56 45.0061 140.539 45.0345C140.519 45.0628 140.505 45.095 140.497 45.1291C140.489 45.1631 140.489 45.1984 140.495 45.2327C140.502 45.267 140.515 45.2996 140.534 45.3286C140.554 45.3576 140.579 45.3824 140.608 45.4015C140.637 45.4205 140.67 45.4334 140.705 45.4394C141.236 45.5571 141.764 45.6839 142.274 45.8162C142.308 45.8254 142.344 45.8274 142.38 45.822Z" fill="white"/>
<defs>
<linearGradient id="paint0_linear_1_13029" x1="90.6107" y1="64.1958" x2="90.6107" y2="127.099" gradientUnits="userSpaceOnUse">
<stop stop-color="#4A00E8"/>
<stop offset="1" stop-color="#3B3EFF"/>
</linearGradient>
<linearGradient id="paint1_linear_1_13029" x1="90.6016" y1="67.3013" x2="90.6016" y2="127.099" gradientUnits="userSpaceOnUse">
<stop stop-color="#4A00E8"/>
<stop offset="1" stop-color="#3B3EFF"/>
</linearGradient>
<linearGradient id="paint2_linear_1_13029" x1="52.41" y1="24" x2="52.41" y2="40.4794" gradientUnits="userSpaceOnUse">
<stop stop-color="#4A00E8"/>
<stop offset="1" stop-color="#3B3EFF"/>
</linearGradient>
<linearGradient id="paint3_linear_1_13029" x1="115.373" y1="67.3013" x2="115.373" y2="122.975" gradientUnits="userSpaceOnUse">
<stop stop-color="#4A00E8"/>
<stop offset="1" stop-color="#3B3EFF"/>
</linearGradient>
<linearGradient id="paint4_linear_1_13029" x1="65.8301" y1="67.3013" x2="65.8301" y2="122.975" gradientUnits="userSpaceOnUse">
<stop stop-color="#4A00E8"/>
<stop offset="1" stop-color="#3B3EFF"/>
</linearGradient>
<clipPath id="clip0_1_13029">
<rect width="103.215" height="103.099" fill="white" transform="translate(38.9922 24)"/>
</clipPath>
</defs>
</svg>
