<svg width="24" height="18" viewBox="0 0 24 18" fill="none" xmlns="http://www.w3.org/2000/svg">
<path d="M15.498 0.833497C17.6404 0.832452 19.6974 1.6733 21.2256 3.17477C22.7537 4.67624 23.6307 6.71808 23.6675 8.86014C23.7042 11.0022 22.8977 13.0729 21.4219 14.6259C19.9461 16.1789 17.9192 17.0898 15.778 17.1622L15.498 17.1668H8.50268C6.36031 17.1679 4.30332 16.327 2.77513 14.8256C1.24695 13.3241 0.369965 11.2822 0.333233 9.14018C0.296502 6.99812 1.10296 4.92741 2.57877 3.37443C4.05458 1.82145 6.08153 0.910572 8.22268 0.838164L8.50152 0.833497H15.4968H15.498ZM15.498 2.5835H8.50268C6.82087 2.57995 5.20489 3.23684 4.00254 4.41279C2.80018 5.58874 2.10758 7.18973 2.07378 8.87121C2.03999 10.5527 2.66771 12.1802 3.82184 13.4035C4.97597 14.6268 6.56425 15.3481 8.24485 15.4122L8.50268 15.4168H15.498C17.1798 15.4204 18.7958 14.7635 19.9982 13.5875C21.2005 12.4116 21.8931 10.8106 21.9269 9.12911C21.9607 7.44764 21.333 5.8201 20.1789 4.59679C19.0247 3.37348 17.4364 2.6522 15.7558 2.58816L15.498 2.5835ZM7.33368 5.50016C7.56575 5.50016 7.78831 5.59235 7.9524 5.75645C8.11649 5.92054 8.20868 6.1431 8.20868 6.37516V8.12283H9.95868C10.1907 8.12283 10.4133 8.21502 10.5774 8.37911C10.7415 8.5432 10.8337 8.76577 10.8337 8.99783C10.8337 9.22989 10.7415 9.45245 10.5774 9.61655C10.4133 9.78064 10.1907 9.87283 9.95868 9.87283H8.20868V11.6252C8.20868 11.8572 8.11649 12.0798 7.9524 12.2439C7.78831 12.408 7.56575 12.5002 7.33368 12.5002C7.10162 12.5002 6.87906 12.408 6.71496 12.2439C6.55087 12.0798 6.45868 11.8572 6.45868 11.6252V9.87283H4.70868C4.59378 9.87283 4.47999 9.8502 4.37383 9.80622C4.26767 9.76225 4.17122 9.6978 4.08996 9.61655C4.00871 9.5353 3.94426 9.43884 3.90029 9.33268C3.85632 9.22652 3.83368 9.11274 3.83368 8.99783C3.83368 8.88292 3.85632 8.76914 3.90029 8.66298C3.94426 8.55682 4.00871 8.46036 4.08996 8.37911C4.17122 8.29786 4.26767 8.23341 4.37383 8.18943C4.47999 8.14546 4.59378 8.12283 4.70868 8.12283H6.45868V6.37516C6.45868 6.1431 6.55087 5.92054 6.71496 5.75645C6.87906 5.59235 7.10162 5.50016 7.33368 5.50016ZM15.2087 9.5835C15.5955 9.5835 15.9664 9.73714 16.2399 10.0106C16.5134 10.2841 16.667 10.6551 16.667 11.0418C16.667 11.4286 16.5134 11.7995 16.2399 12.073C15.9664 12.3465 15.5955 12.5002 15.2087 12.5002C14.8219 12.5002 14.451 12.3465 14.1775 12.073C13.904 11.7995 13.7503 11.4286 13.7503 11.0418C13.7503 10.6551 13.904 10.2841 14.1775 10.0106C14.451 9.73714 14.8219 9.5835 15.2087 9.5835ZM17.542 5.50016C17.9288 5.50016 18.2997 5.65381 18.5732 5.9273C18.8467 6.20079 19.0003 6.57172 19.0003 6.9585C19.0003 7.34527 18.8467 7.7162 18.5732 7.98969C18.2997 8.26318 17.9288 8.41683 17.542 8.41683C17.1552 8.41683 16.7843 8.26318 16.5108 7.98969C16.2373 7.7162 16.0837 7.34527 16.0837 6.9585C16.0837 6.57172 16.2373 6.20079 16.5108 5.9273C16.7843 5.65381 17.1552 5.50016 17.542 5.50016Z" fill="#D1CBD8"/>
</svg>
