<svg width="18" height="18" viewBox="0 0 24 24" fill="none" xmlns="http://www.w3.org/2000/svg">
<path d="M11.9996 24C12.7305 24.0003 13.4363 23.7337 13.9845 23.2503C14.5328 22.767 14.8857 22.1001 14.9771 21.375C15.0026 21.1695 14.8316 21 14.6246 21H9.37458C9.16758 21 8.99657 21.1695 9.02208 21.375C9.11344 22.1001 9.46637 22.767 10.0146 23.2503C10.5629 23.7337 11.2687 24.0003 11.9996 24ZM4.49958 7.5C4.49958 5.51088 5.28975 3.60322 6.69627 2.1967C8.1028 0.790176 10.0105 0 11.9996 0C13.9887 0 15.8964 0.790176 17.3029 2.1967C18.7094 3.60322 19.4996 5.51088 19.4996 7.5V11.9205C19.4996 11.9955 19.5221 12.0675 19.5626 12.129L22.1171 15.9615C22.3447 16.3045 22.4752 16.7028 22.4946 17.114C22.5141 17.5252 22.4217 17.934 22.2274 18.297C22.0331 18.6599 21.7441 18.9634 21.3911 19.1752C21.038 19.3871 20.6343 19.4993 20.2226 19.5H3.77658C3.36404 19.501 2.95901 19.3898 2.60486 19.1782C2.25071 18.9666 1.96078 18.6627 1.76613 18.299C1.57148 17.9353 1.47944 17.5254 1.49986 17.1134C1.52028 16.7014 1.65241 16.3027 1.88208 15.96L4.43658 12.129C4.47734 12.0671 4.49923 11.9946 4.49958 11.9205V7.5ZM11.9996 2.25C10.6072 2.25 9.27183 2.80312 8.28726 3.78769C7.3027 4.77226 6.74958 6.10761 6.74958 7.5V11.9205C6.74958 12.4395 6.59657 12.945 6.30857 13.3755L3.75408 17.2095C3.75104 17.2139 3.74946 17.2192 3.74958 17.2245L3.75108 17.2335C3.75108 17.2365 3.75408 17.2395 3.75708 17.2425L3.76608 17.2485L3.77658 17.25H20.2226L20.2331 17.2485L20.2421 17.2425L20.2481 17.2335L20.2496 17.223C20.2497 17.2177 20.2481 17.2124 20.2451 17.208L17.6906 13.377C17.4029 12.9463 17.2494 12.4399 17.2496 11.922V7.5C17.2496 6.10761 16.6965 4.77226 15.7119 3.78769C14.7273 2.80312 13.392 2.25 11.9996 2.25Z" fill="#D1CBD8"/>
</svg>
