<svg width="16" height="16" viewBox="0 0 16 16" fill="none" xmlns="http://www.w3.org/2000/svg">
<path d="M14.6654 4.82928C14.6659 4.74154 14.6491 4.65457 14.6159 4.57334C14.5827 4.49212 14.5338 4.41824 14.472 4.35595L11.6454 1.52928C11.5831 1.46749 11.5092 1.41861 11.428 1.38543C11.3468 1.35226 11.2598 1.33544 11.172 1.33595C11.0843 1.33544 10.9973 1.35226 10.9161 1.38543C10.8349 1.41861 10.761 1.46749 10.6987 1.52928L8.81204 3.41595L1.52538 10.7026C1.46359 10.7649 1.4147 10.8388 1.38153 10.92C1.34835 11.0012 1.33154 11.0882 1.33204 11.1759V14.0026C1.33204 14.1794 1.40228 14.349 1.5273 14.474C1.65233 14.599 1.8219 14.6693 1.99871 14.6693H4.82538C4.91866 14.6744 5.01197 14.6598 5.09926 14.6265C5.18654 14.5932 5.26585 14.5419 5.33204 14.4759L12.5787 7.18928L14.472 5.33595C14.5329 5.27134 14.5825 5.19697 14.6187 5.11595C14.6251 5.06281 14.6251 5.00909 14.6187 4.95595C14.6218 4.92492 14.6218 4.89365 14.6187 4.86262L14.6654 4.82928ZM4.55204 13.3359H2.66538V11.4493L9.28538 4.82928L11.172 6.71595L4.55204 13.3359ZM12.112 5.77595L10.2254 3.88928L11.172 2.94928L13.052 4.82928L12.112 5.77595Z" fill="url(#paint0_linear_1_7824)"/>
<defs>
<linearGradient id="paint0_linear_1_7824" x1="7.99871" y1="1.33594" x2="7.99871" y2="14.6703" gradientUnits="userSpaceOnUse">
<stop stop-color="#4A00E8"/>
<stop offset="1" stop-color="#3B3EFF"/>
</linearGradient>
</defs>
</svg>
