<svg width="12" height="18" viewBox="0 0 12 18" fill="none" xmlns="http://www.w3.org/2000/svg">
<path d="M1.2797 8.05273L8.82637 0.519398C8.95032 0.394426 9.09778 0.295234 9.26026 0.227543C9.42274 0.159851 9.59702 0.125 9.77303 0.125C9.94905 0.125 10.1233 0.159851 10.2858 0.227543C10.4483 0.295234 10.5957 0.394426 10.7197 0.519398C10.968 0.769214 11.1074 1.10715 11.1074 1.4594C11.1074 1.81165 10.968 2.14958 10.7197 2.3994L4.1197 9.06606L10.7197 15.6661C10.968 15.9159 11.1074 16.2538 11.1074 16.6061C11.1074 16.9583 10.968 17.2962 10.7197 17.5461C10.5962 17.672 10.449 17.7723 10.2865 17.8409C10.124 17.9096 9.94944 17.9453 9.77303 17.9461C9.59662 17.9453 9.42211 17.9096 9.25961 17.8409C9.09711 17.7723 8.94985 17.672 8.82637 17.5461L1.2797 10.0127C1.14436 9.88787 1.03635 9.73634 0.962474 9.56767C0.888597 9.39901 0.850457 9.21687 0.850457 9.03273C0.850457 8.84859 0.888597 8.66646 0.962474 8.49779C1.03635 8.32912 1.14436 8.17759 1.2797 8.05273Z" fill="#D1CBD8"/>
</svg>
