<svg width="14" height="17" viewBox="0 0 14 17" fill="none" xmlns="http://www.w3.org/2000/svg">
<path d="M6.40704 10.7161C6.25308 10.8713 6.16629 11.0808 6.16537 11.2994C6.16558 11.4111 6.18826 11.5216 6.23204 11.6244C6.30726 11.801 6.44114 11.9462 6.61105 12.0355C6.78096 12.1248 6.97649 12.1527 7.16459 12.1145C7.35269 12.0763 7.52184 11.9743 7.64344 11.8258C7.76505 11.6773 7.83167 11.4914 7.83204 11.2994C7.83112 11.0808 7.74432 10.8713 7.59037 10.7161C7.5129 10.638 7.42073 10.576 7.31918 10.5337C7.21763 10.4914 7.10871 10.4696 6.9987 10.4696C6.88869 10.4696 6.77977 10.4914 6.67822 10.5337C6.57667 10.576 6.48451 10.638 6.40704 10.7161ZM13.357 1.54941C13.2602 1.4711 13.1471 1.41547 13.026 1.38663C12.9048 1.35779 12.7788 1.35646 12.657 1.38274C11.7666 1.56936 10.8473 1.57174 9.9559 1.38973C9.06447 1.20772 8.21974 0.845173 7.4737 0.324411C7.33421 0.227638 7.16848 0.175781 6.9987 0.175781C6.82893 0.175781 6.6632 0.227638 6.5237 0.324411C5.77704 0.843745 4.93201 1.20481 4.04061 1.38538C3.1492 1.56595 2.23028 1.56222 1.34037 1.37441C1.21865 1.34813 1.09259 1.34945 0.971453 1.3783C0.850316 1.40714 0.737182 1.46276 0.640369 1.54108C0.543685 1.61951 0.465803 1.71861 0.412446 1.83109C0.359089 1.94357 0.331613 2.06658 0.332036 2.19108V8.39941C0.331295 9.5942 0.616014 10.7719 1.16248 11.8344C1.70895 12.8969 2.50135 13.8134 3.4737 14.5077L6.51537 16.6744C6.6565 16.7749 6.82545 16.8289 6.9987 16.8289C7.17196 16.8289 7.3409 16.7749 7.48204 16.6744L10.5237 14.5077C11.4961 13.8134 12.2885 12.8969 12.8349 11.8344C13.3814 10.7719 13.6661 9.5942 13.6654 8.39941V2.19108C13.6658 2.06658 13.6383 1.94357 13.585 1.83109C13.5316 1.71861 13.4537 1.61951 13.357 1.54108V1.54941ZM11.9987 8.39941C11.9993 9.32838 11.7781 10.2441 11.3534 11.0703C10.9287 11.8965 10.3128 12.6093 9.55704 13.1494L6.9987 14.9744L4.44037 13.1494C3.68457 12.6093 3.06869 11.8965 2.64399 11.0703C2.2193 10.2441 1.99806 9.32838 1.9987 8.39941V3.14941C3.74573 3.29894 5.4954 2.8936 6.9987 1.99108C8.502 2.8936 10.2517 3.29894 11.9987 3.14941V8.39941ZM6.9987 4.63274C6.55959 4.63246 6.12815 4.74785 5.74779 4.96728C5.36744 5.18672 5.05159 5.50246 4.83204 5.88274C4.73241 6.0732 4.71022 6.29478 4.7701 6.5012C4.82999 6.70762 4.96732 6.88293 5.1534 6.99049C5.33949 7.09805 5.55994 7.12956 5.7687 7.07842C5.97746 7.02729 6.1584 6.89747 6.2737 6.71608C6.34677 6.58952 6.45184 6.4844 6.57837 6.41127C6.70489 6.33814 6.84842 6.29956 6.99456 6.29942C7.1407 6.29927 7.28431 6.33756 7.41098 6.41045C7.53765 6.48333 7.64293 6.58824 7.71625 6.71465C7.78957 6.84107 7.82835 6.98454 7.82872 7.13068C7.82908 7.27682 7.79101 7.42049 7.71831 7.54726C7.64562 7.67404 7.54087 7.77948 7.41456 7.85299C7.28826 7.9265 7.14484 7.9655 6.9987 7.96608C6.77769 7.96608 6.56573 8.05388 6.40945 8.21016C6.25317 8.36644 6.16537 8.5784 6.16537 8.79941C6.16537 9.02043 6.25317 9.23239 6.40945 9.38867C6.56573 9.54495 6.77769 9.63274 6.9987 9.63274C7.66174 9.63274 8.29763 9.36935 8.76647 8.90051C9.23531 8.43167 9.4987 7.79579 9.4987 7.13274C9.4987 6.4697 9.23531 5.83382 8.76647 5.36498C8.29763 4.89614 7.66174 4.63274 6.9987 4.63274Z" fill="#D1CBD8"/>
</svg>
