<svg width="20" height="20" viewBox="0 0 14 14" fill="none" xmlns="http://www.w3.org/2000/svg">
<path d="M8.57301 8.48732C8.12736 8.84663 7.57214 9.04257 6.99968 9.04257C6.42722 9.04257 5.872 8.84663 5.42634 8.48732C5.2902 8.37416 5.11468 8.31972 4.9384 8.33597C4.76211 8.35222 4.5995 8.43784 4.48634 8.57398C4.37319 8.71013 4.31874 8.88565 4.335 9.06193C4.35125 9.23822 4.43687 9.40083 4.57301 9.51398C5.2539 10.0824 6.11272 10.3937 6.99968 10.3937C7.88664 10.3937 8.74545 10.0824 9.42634 9.51398C9.56249 9.40083 9.64811 9.23822 9.66436 9.06193C9.68061 8.88565 9.62617 8.71013 9.51301 8.57398C9.45698 8.50657 9.38822 8.45086 9.31066 8.41002C9.2331 8.36918 9.14825 8.34402 9.06096 8.33597C8.88468 8.31972 8.70916 8.37416 8.57301 8.48732ZM4.99968 6.33398C5.13153 6.33398 5.26043 6.29489 5.37006 6.22163C5.47969 6.14838 5.56514 6.04426 5.6156 5.92244C5.66606 5.80062 5.67926 5.66658 5.65353 5.53726C5.62781 5.40794 5.56432 5.28915 5.47108 5.19591C5.37785 5.10268 5.25906 5.03918 5.12974 5.01346C5.00042 4.98774 4.86637 5.00094 4.74455 5.0514C4.62274 5.10186 4.51862 5.1873 4.44536 5.29694C4.37211 5.40657 4.33301 5.53546 4.33301 5.66732C4.33301 5.84413 4.40325 6.0137 4.52827 6.13872C4.6533 6.26375 4.82287 6.33398 4.99968 6.33398ZM8.99968 5.00065C8.86782 5.00065 8.73893 5.03975 8.6293 5.113C8.51966 5.18626 8.43422 5.29038 8.38376 5.4122C8.3333 5.53401 8.3201 5.66806 8.34582 5.79738C8.37154 5.9267 8.43504 6.04549 8.52827 6.13872C8.62151 6.23196 8.7403 6.29545 8.86962 6.32117C8.99894 6.3469 9.13298 6.3337 9.2548 6.28324C9.37662 6.23278 9.48074 6.14733 9.55399 6.0377C9.62724 5.92807 9.66634 5.79917 9.66634 5.66732C9.66634 5.49051 9.59611 5.32094 9.47108 5.19591C9.34606 5.07089 9.17649 5.00065 8.99968 5.00065ZM6.99968 0.333984C5.68114 0.333984 4.3922 0.724978 3.29588 1.45752C2.19955 2.19006 1.34506 3.23125 0.840481 4.44943C0.335896 5.6676 0.203874 7.00805 0.461109 8.30125C0.718344 9.59446 1.35328 10.7823 2.28563 11.7147C3.21798 12.647 4.40587 13.282 5.69908 13.5392C6.99228 13.7965 8.33273 13.6644 9.5509 13.1598C10.7691 12.6553 11.8103 11.8008 12.5428 10.7045C13.2754 9.60812 13.6663 8.31919 13.6663 7.00065C13.6663 6.12517 13.4939 5.25827 13.1589 4.44943C12.8238 3.64059 12.3328 2.90566 11.7137 2.28661C11.0947 1.66755 10.3597 1.17649 9.5509 0.841454C8.74206 0.506423 7.87516 0.333984 6.99968 0.333984ZM6.99968 12.334C5.94484 12.334 4.9137 12.0212 4.03664 11.4352C3.15957 10.8491 2.47599 10.0162 2.07232 9.04163C1.66865 8.06709 1.56304 6.99474 1.76882 5.96017C1.97461 4.9256 2.48256 3.9753 3.22844 3.22941C3.97432 2.48354 4.92463 1.97558 5.9592 1.7698C6.99376 1.56401 8.06612 1.66963 9.04066 2.07329C10.0152 2.47696 10.8481 3.16055 11.4342 4.03761C12.0202 4.91467 12.333 5.94582 12.333 7.00065C12.333 8.41514 11.7711 9.77169 10.7709 10.7719C9.77072 11.7721 8.41417 12.334 6.99968 12.334Z" fill="#D1CBD8"/>
</svg>
