<svg width="32" height="32" viewBox="0 0 32 32" fill="none" xmlns="http://www.w3.org/2000/svg">
<path d="M6.66406 15.9993C6.66406 15.6457 6.52359 15.3066 6.27354 15.0565C6.02349 14.8065 5.68435 14.666 5.33073 14.666H3.9974C3.64377 14.666 3.30464 14.8065 3.05459 15.0565C2.80454 15.3066 2.66406 15.6457 2.66406 15.9993C2.66406 16.353 2.80454 16.6921 3.05459 16.9422C3.30464 17.1922 3.64377 17.3327 3.9974 17.3327H5.33073C5.68435 17.3327 6.02349 17.1922 6.27354 16.9422C6.52359 16.6921 6.66406 16.353 6.66406 15.9993ZM7.5174 22.666L6.57073 23.6127C6.32239 23.8625 6.18301 24.2004 6.18301 24.5527C6.18301 24.9049 6.32239 25.2429 6.57073 25.4927C6.82055 25.741 7.15848 25.8804 7.51073 25.8804C7.86298 25.8804 8.20091 25.741 8.45073 25.4927L9.3974 24.546C9.61583 24.2909 9.72997 23.9628 9.71701 23.6273C9.70405 23.2917 9.56494 22.9734 9.32748 22.7359C9.09002 22.4985 8.7717 22.3594 8.43613 22.3464C8.10057 22.3334 7.77246 22.4476 7.5174 22.666ZM15.9974 6.66602C16.351 6.66602 16.6902 6.52554 16.9402 6.27549C17.1903 6.02544 17.3307 5.6863 17.3307 5.33268V3.99935C17.3307 3.64573 17.1903 3.30659 16.9402 3.05654C16.6902 2.80649 16.351 2.66602 15.9974 2.66602C15.6438 2.66602 15.3046 2.80649 15.0546 3.05654C14.8045 3.30659 14.6641 3.64573 14.6641 3.99935V5.33268C14.6641 5.6863 14.8045 6.02544 15.0546 6.27549C15.3046 6.52554 15.6438 6.66602 15.9974 6.66602ZM23.5441 9.78602C23.8938 9.78454 24.229 9.64567 24.4774 9.39935L25.4241 8.45268C25.5636 8.33315 25.677 8.18606 25.757 8.02064C25.8371 7.85522 25.882 7.67505 25.8891 7.49142C25.8962 7.30779 25.8653 7.12469 25.7982 6.95359C25.7312 6.78249 25.6295 6.62709 25.4996 6.49715C25.3697 6.36721 25.2143 6.26553 25.0432 6.1985C24.8721 6.13147 24.6889 6.10052 24.5053 6.10762C24.3217 6.11471 24.1415 6.15968 23.9761 6.23971C23.8107 6.31975 23.6636 6.43311 23.5441 6.57268L22.6641 7.51935C22.4157 7.76917 22.2763 8.1071 22.2763 8.45935C22.2763 8.8116 22.4157 9.14953 22.6641 9.39935C22.8991 9.63316 23.2129 9.77102 23.5441 9.78602ZM7.54406 9.39935C7.79241 9.64567 8.12761 9.78454 8.4774 9.78602C8.65287 9.78703 8.82682 9.7534 8.98927 9.68704C9.15172 9.62069 9.29948 9.52292 9.42406 9.39935C9.6724 9.14953 9.81179 8.8116 9.81179 8.45935C9.81179 8.1071 9.6724 7.76917 9.42406 7.51935L8.4774 6.57268C8.35395 6.44749 8.20706 6.34783 8.0451 6.27941C7.88315 6.21099 7.7093 6.17513 7.53349 6.17389C7.35768 6.17266 7.18334 6.20606 7.02044 6.27219C6.85754 6.33833 6.70926 6.43591 6.58406 6.55935C6.45887 6.68279 6.35921 6.82968 6.29079 6.99164C6.22237 7.15359 6.18651 7.32744 6.18527 7.50325C6.18277 7.85832 6.32143 8.19984 6.57073 8.45268L7.54406 9.39935ZM27.9974 14.666H26.6641C26.3104 14.666 25.9713 14.8065 25.7213 15.0565C25.4712 15.3066 25.3307 15.6457 25.3307 15.9993C25.3307 16.353 25.4712 16.6921 25.7213 16.9422C25.9713 17.1922 26.3104 17.3327 26.6641 17.3327H27.9974C28.351 17.3327 28.6902 17.1922 28.9402 16.9422C29.1903 16.6921 29.3307 16.353 29.3307 15.9993C29.3307 15.6457 29.1903 15.3066 28.9402 15.0565C28.6902 14.8065 28.351 14.666 27.9974 14.666ZM24.4774 22.666C24.2241 22.5251 23.9317 22.4706 23.6447 22.5107C23.3576 22.5509 23.0914 22.6834 22.8865 22.8884C22.6815 23.0934 22.5489 23.3596 22.5088 23.6466C22.4686 23.9337 22.5232 24.226 22.6641 24.4793L23.6107 25.426C23.8605 25.6743 24.1985 25.8137 24.5507 25.8137C24.903 25.8137 25.2409 25.6743 25.4907 25.426C25.7391 25.1762 25.8785 24.8383 25.8785 24.486C25.8785 24.1338 25.7391 23.7958 25.4907 23.546L24.4774 22.666ZM15.9974 8.66602C14.547 8.66602 13.1292 9.09611 11.9232 9.9019C10.7173 10.7077 9.77732 11.853 9.22228 13.193C8.66724 14.533 8.52201 16.0075 8.80497 17.43C9.08793 18.8525 9.78636 20.1592 10.8119 21.1848C11.8375 22.2104 13.1442 22.9088 14.5667 23.1918C15.9893 23.4747 17.4637 23.3295 18.8037 22.7745C20.1437 22.2194 21.289 21.2795 22.0948 20.0735C22.9006 18.8676 23.3307 17.4497 23.3307 15.9993C23.3272 14.0555 22.5535 12.1923 21.179 10.8178C19.8044 9.44329 17.9412 8.66954 15.9974 8.66602ZM15.9974 20.666C15.0744 20.666 14.1722 20.3923 13.4047 19.8795C12.6373 19.3668 12.0392 18.6379 11.686 17.7852C11.3327 16.9325 11.2403 15.9942 11.4204 15.0889C11.6005 14.1837 12.0449 13.3522 12.6976 12.6995C13.3502 12.0469 14.1817 11.6024 15.087 11.4223C15.9922 11.2423 16.9305 11.3347 17.7833 11.6879C18.636 12.0411 19.3648 12.6393 19.8776 13.4067C20.3904 14.1741 20.6641 15.0764 20.6641 15.9993C20.6641 17.237 20.1724 18.424 19.2972 19.2992C18.4221 20.1743 17.2351 20.666 15.9974 20.666ZM15.9974 25.3327C15.6438 25.3327 15.3046 25.4732 15.0546 25.7232C14.8045 25.9733 14.6641 26.3124 14.6641 26.666V27.9993C14.6641 28.353 14.8045 28.6921 15.0546 28.9422C15.3046 29.1922 15.6438 29.3327 15.9974 29.3327C16.351 29.3327 16.6902 29.1922 16.9402 28.9422C17.1903 28.6921 17.3307 28.353 17.3307 27.9993V26.666C17.3307 26.3124 17.1903 25.9733 16.9402 25.7232C16.6902 25.4732 16.351 25.3327 15.9974 25.3327Z" fill="#D1CBD8"/>
</svg>
