<svg width="32" height="32" viewBox="0 0 28 28" fill="none" xmlns="http://www.w3.org/2000/svg">
<path d="M24.5006 4.66536H21.0006V3.4987C21.0006 3.18928 20.8777 2.89253 20.6589 2.67374C20.4401 2.45495 20.1434 2.33203 19.834 2.33203H8.16732C7.8579 2.33203 7.56115 2.45495 7.34236 2.67374C7.12357 2.89253 7.00065 3.18928 7.00065 3.4987V4.66536H3.50065C3.19123 4.66536 2.89449 4.78828 2.67569 5.00707C2.4569 5.22587 2.33398 5.52261 2.33398 5.83203V9.33203C2.33398 10.5697 2.82565 11.7567 3.70082 12.6319C4.57599 13.507 5.76297 13.9987 7.00065 13.9987H8.79732C9.85261 15.176 11.2754 15.9614 12.834 16.227V18.6654H11.6673C10.7391 18.6654 9.84882 19.0341 9.19244 19.6905C8.53607 20.3469 8.16732 21.2371 8.16732 22.1654V24.4987C8.16732 24.8081 8.29023 25.1049 8.50903 25.3237C8.72782 25.5424 9.02456 25.6654 9.33398 25.6654H18.6673C18.9767 25.6654 19.2735 25.5424 19.4923 25.3237C19.7111 25.1049 19.834 24.8081 19.834 24.4987V22.1654C19.834 21.2371 19.4652 20.3469 18.8089 19.6905C18.1525 19.0341 17.2622 18.6654 16.334 18.6654H15.1673V16.227C16.7259 15.9614 18.1487 15.176 19.204 13.9987H21.0006C22.2383 13.9987 23.4253 13.507 24.3005 12.6319C25.1756 11.7567 25.6673 10.5697 25.6673 9.33203V5.83203C25.6673 5.52261 25.5444 5.22587 25.3256 5.00707C25.1068 4.78828 24.8101 4.66536 24.5006 4.66536ZM7.00065 11.6654C6.38181 11.6654 5.78832 11.4195 5.35073 10.9819C4.91315 10.5444 4.66732 9.95087 4.66732 9.33203V6.9987H7.00065V9.33203C7.00322 10.1274 7.14131 10.9164 7.40898 11.6654H7.00065ZM16.334 20.9987C16.6434 20.9987 16.9401 21.1216 17.1589 21.3404C17.3777 21.5592 17.5006 21.8559 17.5006 22.1654V23.332H10.5007V22.1654C10.5007 21.8559 10.6236 21.5592 10.8424 21.3404C11.0612 21.1216 11.3579 20.9987 11.6673 20.9987H16.334ZM18.6673 9.33203C18.6673 10.5697 18.1757 11.7567 17.3005 12.6319C16.4253 13.507 15.2383 13.9987 14.0006 13.9987C12.763 13.9987 11.576 13.507 10.7008 12.6319C9.82565 11.7567 9.33398 10.5697 9.33398 9.33203V4.66536H18.6673V9.33203ZM23.334 9.33203C23.334 9.95087 23.0881 10.5444 22.6506 10.9819C22.213 11.4195 21.6195 11.6654 21.0006 11.6654H20.5923C20.86 10.9164 20.9981 10.1274 21.0006 9.33203V6.9987H23.334V9.33203Z" fill="#D1CBD8"/>
</svg>
