<svg width="28" height="28" viewBox="0 0 28 28" fill="none" xmlns="http://www.w3.org/2000/svg">
<path d="M14 2.33301C11.7372 2.33731 9.52451 2.99954 7.63141 4.23904C5.73831 5.47854 4.24652 7.24181 3.33774 9.31407C2.42896 11.3863 2.14241 13.6782 2.51301 15.9104C2.8836 18.1426 3.89533 20.2189 5.42498 21.8863C6.51747 23.0706 7.84341 24.0157 9.31924 24.6621C10.7951 25.3085 12.3888 25.6422 14 25.6422C15.6112 25.6422 17.2049 25.3085 18.6807 24.6621C20.1565 24.0157 21.4825 23.0706 22.575 21.8863C24.1046 20.2189 25.1164 18.1426 25.4869 15.9104C25.8575 13.6782 25.571 11.3863 24.6622 9.31407C23.7534 7.24181 22.2616 5.47854 20.3685 4.23904C18.4754 2.99954 16.2627 2.33731 14 2.33301ZM14 23.333C11.5832 23.3293 9.26204 22.3883 7.52497 20.708C8.05236 19.4241 8.94951 18.326 10.1024 17.5532C11.2554 16.7804 12.612 16.3678 14 16.3678C15.3879 16.3678 16.7446 16.7804 17.8975 17.5532C19.0504 18.326 19.9476 19.4241 20.475 20.708C18.7379 22.3883 16.4168 23.3293 14 23.333ZM11.6666 11.6663C11.6666 11.2049 11.8035 10.7537 12.0599 10.37C12.3163 9.9863 12.6807 9.68723 13.107 9.51062C13.5334 9.33402 14.0026 9.28781 14.4552 9.37784C14.9078 9.46787 15.3236 9.6901 15.6499 10.0164C15.9762 10.3427 16.1984 10.7585 16.2885 11.2111C16.3785 11.6638 16.3323 12.1329 16.1557 12.5593C15.9791 12.9856 15.68 13.35 15.2963 13.6064C14.9126 13.8628 14.4615 13.9997 14 13.9997C13.3811 13.9997 12.7876 13.7538 12.3501 13.3163C11.9125 12.8787 11.6666 12.2852 11.6666 11.6663ZM22.0616 18.6663C21.0193 16.8834 19.4149 15.4965 17.5 14.723C18.094 14.0494 18.4811 13.2188 18.6147 12.3307C18.7483 11.4426 18.6229 10.5348 18.2533 9.71625C17.8838 8.8977 17.286 8.20316 16.5315 7.71597C15.7771 7.22878 14.8981 6.96963 14 6.96963C13.1019 6.96963 12.2229 7.22878 11.4684 7.71597C10.714 8.20316 10.1161 8.8977 9.7466 9.71625C9.37709 10.5348 9.25163 11.4426 9.38526 12.3307C9.51889 13.2188 9.90595 14.0494 10.5 14.723C8.58501 15.4965 6.98069 16.8834 5.93831 18.6663C5.10758 17.2513 4.66865 15.6406 4.66664 13.9997C4.66664 11.5243 5.64997 9.15035 7.40031 7.40001C9.15065 5.64967 11.5246 4.66634 14 4.66634C16.4753 4.66634 18.8493 5.64967 20.5996 7.40001C22.35 9.15035 23.3333 11.5243 23.3333 13.9997C23.3313 15.6406 22.8924 17.2513 22.0616 18.6663Z" fill="#D1CBD8"/>
</svg>
