<svg width="14" height="14" viewBox="0 0 14 14" fill="none" xmlns="http://www.w3.org/2000/svg">
<path fill-rule="evenodd" clip-rule="evenodd" d="M6.99967 0.333496C3.31778 0.333496 0.333008 3.31826 0.333008 7.00016C0.333008 10.6821 3.31778 13.6668 6.99967 13.6668C10.6816 13.6668 13.6663 10.6821 13.6663 7.00016C13.6663 5.23205 12.964 3.53636 11.7137 2.28612C10.4635 1.03588 8.76779 0.333496 6.99967 0.333496ZM7.66634 9.66683C7.66634 10.035 7.36786 10.3335 6.99967 10.3335C6.63148 10.3335 6.33301 10.035 6.33301 9.66683V6.3335C6.33301 5.96531 6.63148 5.66683 6.99967 5.66683C7.36786 5.66683 7.66634 5.96531 7.66634 6.3335V9.66683ZM6.33301 4.3335C6.33301 4.70169 6.63148 5.00016 6.99967 5.00016C7.36786 5.00016 7.66634 4.70169 7.66634 4.3335C7.66634 3.96531 7.36786 3.66683 6.99967 3.66683C6.63148 3.66683 6.33301 3.96531 6.33301 4.3335Z" fill="#FFC107"/>
</svg>
